<svg xmlns="http://www.w3.org/2000/svg" width="230" height="57" viewBox="0 0 230 57"><g fill="none"><g transform="translate(103)"><path fill="#82BC00" d="M13.5034169,13.5135135 C13.1083124,8.81601287 11.8289558,4.23286287 9.73120729,0 L1.15886641e-13,0 L1.15886641e-13,14.3513514 C1.33940774,14.3513514 2.73348519,14.5405405 4.15489749,14.5405405 C7.30038111,14.5498817 10.4367262,14.2053232 13.5034169,13.5135135 M13.5034169,15.4324324 C11.3740183,15.9481651 9.19006938,16.2112797 6.9977221,16.2162162 C4.63727355,16.2260787 2.28536402,15.9354007 1.15886641e-13,15.3513514 L1.15886641e-13,35 L11.3986333,35 C12.9644444,29.8283479 13.7293757,24.4521175 13.667426,19.0540541 C13.667426,17.8378378 13.667426,16.6216216 13.667426,15.4324324 L13.5034169,15.4324324 Z"/><path fill="#4B4E67" d="M10.332574,4.56503132e-13 C12.7229156,4.07430217 14.2395726,8.59143438 14.7881549,13.2702703 C18.1454119,12.4793044 21.2886143,10.9761223 24,8.86486486 L24,4.56503132e-13 L10.332574,4.56503132e-13 Z M15.0615034,19.0540541 C14.9385462,24.4961849 13.8849441,29.8784935 11.9453303,34.972973 L24,34.972973 L24,9.48648649 C21.547196,12.1591367 18.3981867,14.1132852 14.8974943,15.1351351 C15.0068337,16.4324324 15.0615034,17.7297297 15.0615034,19.0540541 Z"/></g><path fill="#4B4E67" d="M114.057231 10.5179848 114.057231 10.5179848C115.110865 10.5179848 116.207505 10.1567611 116.207505 8.54187854 116.207505 6.92699603 115.132368 6.54452386 114.057231 6.54452386L112.681055 6.54452386 112.681055 10.5179848 114.057231 10.5179848ZM113.627176 5.4608527 113.627176 5.4608527C114.573297 5.4608527 115.77745 5.24836816 115.77745 3.33600729 115.77745 1.89111241 114.91734 1.69987633 113.97122 1.69987633L112.595045 1.69987633 112.595045 5.4608527 113.627176 5.4608527ZM113.992723.594956714C115.218379.594956714 117.239636.722447439 117.239636 3.22976502 117.293246 4.35012589 116.65597 5.39129668 115.626931 5.86457333 116.904174 6.13939031 117.766458 7.32131823 117.626685 8.60562391 117.655492 9.53792024 117.261162 10.4341552 116.551549 11.0491961 115.700499 11.5787202 114.688561 11.796759 113.691684 11.6654013L110.229743 11.6654013C110.176535 11.6725122 110.123017 11.6546644 110.085051 11.6171466 110.047084 11.5796289 110.029023 11.5267447 110.036219 11.4741652L110.036219 10.8154631C110.029023 10.7628837 110.047084 10.7099995 110.085051 10.6724817 110.123017 10.6349639 110.176535 10.6171161 110.229743 10.624227L111.261875 10.624227 111.261875 1.63613096 110.229743 1.63613096C110.153421 1.672735 110.061488 1.6488888 110.013199 1.57996159 109.964909 1.51103438 109.974682 1.41760966 110.036219 1.35990106L110.036219.786192801C110.029023.73361334 110.047084.680729144 110.085051.643211381 110.123017.605693618 110.176535.58784578 110.229743.594956714L113.992723.594956714ZM122.593818 7.79818265 122.593818 7.79818265C121.884228 7.79818265 119.561932 7.79818265 119.561932 9.49805898 119.519641 9.83897884 119.623243 10.1818721 119.847761 10.4440736 120.072279 10.7062752 120.397342 10.8639945 120.744583 10.8792085 121.466733 10.7714759 122.128278 10.4183157 122.615321 9.88053115L122.593818 7.79818265ZM118.809336 4.61091454C118.794855 4.54080917 118.794855 4.46853536 118.809336 4.39843 118.809336 4.12220009 120.314528 3.6547341 121.346659 3.6547341 123.217398 3.6547341 123.86248 4.56841763 123.86248 5.90707024L123.86248 9.00934453C123.813638 9.55506617 123.879526 10.1048726 124.056004 10.624227L124.830103 10.624227C124.883312 10.6171161 124.936829 10.6349639 124.974796 10.6724817 125.012762 10.7099995 125.030824 10.7628837 125.023628 10.8154631L125.023628 11.4316683C125.030824 11.4842478 125.012762 11.537132 124.974796 11.5746497 124.936829 11.6121675 124.883312 11.6300153 124.830103 11.6229044L123.432425 11.6229044C123.023873 11.6229044 122.894857 11.0279477 122.808846 10.7729662 122.208653 11.433369 121.362714 11.8244947 120.465047 11.8566438 119.867696 11.8580855 119.296655 11.6139185 118.88878 11.1826527 118.480904 10.7513869 118.272957 10.1718937 118.314773 9.58305279 118.314773 6.86325067 121.583189 6.79950531 122.615321 6.77825685L122.615321 6.20454859C122.615321 5.26961661 122.314283 4.75965372 121.153135 4.75965372 120.458942 4.79703804 119.77919 4.97038344 119.15338 5.26961661 119.119249 5.2850754 119.079997 5.2850754 119.045866 5.26961661L118.809336 4.61091454ZM132.829122 11.4316683C132.836318 11.4842478 132.818257 11.537132 132.78029 11.5746497 132.742323 11.6121675 132.688806 11.6300153 132.635597 11.6229044L131.259422 11.6229044C130.764859 11.6229044 130.700351 11.1129415 130.571334 10.9004569 129.942924 11.451669 129.150864 11.7871091 128.313547 11.8566374 126.163273 11.8566374 125.926743 10.6029786 125.926743 9.43431362L125.926743 4.88714444 124.916114 4.88714444C124.876388 4.82944292 124.876388 4.75360988 124.916114 4.69590835L124.916114 4.07970318C124.876388 4.02200166 124.876388 3.94616862 124.916114 3.8884671L127.066388 3.8884671C127.119597 3.88135616 127.173114 3.899204 127.21108 3.93672176 127.249047 3.97423953 127.267109 4.02712372 127.259913 4.07970318L127.259913 9.47681052C127.216686 9.8358196 127.344044 10.1943852 127.604846 10.4479467 127.865648 10.7015081 128.230528 10.8215128 128.593082 10.7729662 129.287763 10.6923373 129.940705 10.4031008 130.463821 9.94427651L130.463821 4.88714444 129.431689 4.88714444C129.375251 4.90234186 129.314866 4.88815677 129.271386 4.84948783 129.227906 4.81081888 129.207292 4.75296613 129.216662 4.69590835L129.216662 4.07970318C129.209466 4.02712372 129.227527 3.97423953 129.265494 3.93672176 129.303461 3.899204 129.356978 3.88135616 129.410186 3.8884671L131.366936 3.8884671C131.420144 3.88135616 131.473662 3.899204 131.511628 3.93672176 131.549595 3.97423953 131.567656 4.02712372 131.56046 4.07970318L131.56046 9.60430125C131.526113 9.94342941 131.526113 10.2850989 131.56046 10.624227L132.485078 10.624227C132.538287 10.6171161 132.591804 10.6349639 132.629771 10.6724817 132.667737 10.7099995 132.685799 10.7628837 132.678603 10.8154631L132.829122 11.4316683ZM139.817512 2.01860314 139.817512 2.01860314C139.265295 2.01860314 138.817635 1.57623669 138.817635 1.03055002 138.817635.484863356 139.265295.0424969082 139.817512.0424969082 140.369729.0424969082 140.81739.484863356 140.81739 1.03055002 140.81739 1.57623669 140.369729 2.01860314 139.817512 2.01860314L139.817512 2.01860314ZM137.968277 10.666724C138.016394 10.646653 138.070678 10.646653 138.118796 10.666724L139.301446 10.666724 139.301446 4.88714444 138.011282 4.88714444C137.958073 4.89425538 137.904556 4.87640754 137.86659 4.83888977 137.828623 4.80137201 137.810561 4.74848781 137.817757 4.69590835L137.817757 4.12220009 137.60273 4.75965372C137.568021 4.8475889 137.483195 4.90626452 137.387703 4.90839289L135.237429 4.90839289 135.237429 9.49805898C135.237429 10.1355126 135.237429 10.7942147 136.226555 10.7942147 136.770094 10.7399701 137.300637 10.596335 137.796255 10.3692456 137.82952 10.3502672 137.870504 10.3502672 137.903768 10.3692456L137.968277 10.666724ZM141.903278 11.4104198C141.910474 11.4629993 141.892413 11.5158835 141.854446 11.5534013 141.816479 11.590919 141.762962 11.6087669 141.709753 11.6016559L138.118796 11.6016559C138.065587 11.6087669 138.01207 11.590919 137.974103 11.5534013 137.936137 11.5158835 137.918075 11.4629993 137.925271 11.4104198L137.925271 11.4104198C137.324431 11.712035 136.663636 11.8789077 135.990025 11.8991343 135.421688 11.9313481 134.866395 11.7226776 134.46333 11.325426 134.075065 10.7984494 133.905784 10.1445416 133.99027 9.49805898L133.99027 4.88714444 132.764614 4.88714444C132.6571 4.88714444 132.6571 4.78090217 132.6571 4.69590835L132.6571 4.07970318C132.6571 3.97346091 132.6571 3.8884671 132.764614 3.8884671L133.99027 3.8884671 133.99027 1.76362169C133.99027 1.76362169 133.99027 1.59363406 134.162292 1.5723856L135.022401 1.33865261 135.129915 1.33865261C135.129915 1.33865261 135.129915 1.33865261 135.129915 1.50864024L135.129915 3.8884671 137.538222 3.8884671C137.538222 3.8884671 137.710244 3.8884671 137.710244 3.8884671 137.763468 3.85810173 137.829042 3.85810173 137.882266 3.8884671L140.204562 3.8884671C140.376583 3.8884671 140.419589 3.8884671 140.419589 4.12220009L140.419589 10.624227 141.580737 10.624227C141.633946 10.6171161 141.687463 10.6349639 141.725429 10.6724817 141.763396 10.7099995 141.781458 10.7628837 141.774261 10.8154631L141.903278 11.4104198ZM145.730765 4.88714444C145.395442 4.7539523 145.038454 4.68195915 144.677131 4.6746599 144.368895 4.6305475 144.056701 4.72345386 143.824377 4.92843296 143.592053 5.13341207 143.463406 5.42945884 143.472978 5.7370826 143.472978 7.50070429 147.106941 7.01198985 147.106941 9.51930743 147.104882 10.1767128 146.8202 10.8022805 146.323873 11.2400444 145.827546 11.6778083 145.166341 11.8865189 144.505109 11.8141405 143.515983 11.8141405 142.032294 11.3466745 142.032294 11.0066992L142.032294 9.49805898C142.032294 9.39181671 142.032294 9.32807134 142.204316 9.32807134L142.913907 9.32807134C143.042923 9.32807134 143.085929 9.32807134 143.085929 9.49805898L143.085929 10.4542394C143.561124 10.6314639 144.062101 10.7319093 144.569618 10.7517178 144.904957 10.7880907 145.240054 10.6812166 145.490602 10.4579839 145.74115 10.2347512 145.883299 9.91641055 145.881285 9.58305279 145.881285 7.90442492 142.247322 8.26564864 142.247322 5.84332487 142.245012 5.21130887 142.511529 4.60741316 142.981811 4.17906227 143.452093 3.75071138 144.082863 3.53732253 144.720137 3.59098874 145.383707 3.63209328 146.033241 3.79796541 146.633881 4.07970318 146.805902 4.07970318 146.805902 4.24969082 146.805902 4.33468463L146.805902 5.7370826C146.813098 5.78966206 146.795037 5.84254626 146.75707 5.88006402 146.719104 5.91758179 146.665586 5.93542963 146.612378 5.92831869L145.945793 5.92831869C145.892584 5.93542963 145.839067 5.91758179 145.8011 5.88006402 145.763134 5.84254626 145.745072 5.78966206 145.752268 5.7370826L145.730765 4.88714444ZM152.568636 11.0066992C152.57411 11.0632327 152.57411 11.1201534 152.568636 11.1766869 152.568636 11.3891714 151.34298 11.8353889 150.418363 11.8353889 149.85045 11.8649023 149.296231 11.6566352 148.891668 11.2616807 148.503403 10.734704 148.334122 10.0807963 148.418608 9.43431362L148.418608 4.88714444 147.192952 4.88714444C147.085438 4.88714444 147.085438 4.78090217 147.085438 4.69590835L147.085438 4.07970318C147.085438 3.97346091 147.085438 3.8884671 147.192952 3.8884671L148.569127 3.8884671 148.569127 1.76362169C148.569127 1.76362169 148.569127 1.59363406 148.741149 1.5723856L149.601259 1.33865261 149.708772 1.33865261C149.708772 1.33865261 149.708772 1.33865261 149.708772 1.50864024L149.708772 3.8884671 152.117079 3.8884671C152.117079 3.8884671 152.310604 3.8884671 152.310604 3.99470937 152.310604 4.10095164 152.310604 3.99470937 152.310604 4.10095164L152.095576 4.73840526C152.060867 4.82634045 151.976042 4.88501607 151.880549 4.88714444L149.730275 4.88714444 149.730275 9.47681052C149.730275 10.1142641 149.730275 10.7729662 150.719401 10.7729662 151.263015 10.7191166 151.793623 10.5754637 152.289101 10.3479971 152.322366 10.3290188 152.36335 10.3290188 152.396615 10.3479971L152.568636 11.0066992ZM156.955195 7.73443729 156.955195 7.73443729C156.245605 7.73443729 153.923309 7.73443729 153.923309 9.43431362 153.881018 9.77523348 153.98462 10.1181267 154.209138 10.3803283 154.433656 10.6425299 154.758719 10.8002492 155.10596 10.8154631 155.814685 10.7144629 156.467173 10.377082 156.955195 9.8592827L156.955195 7.73443729ZM153.192216 4.61091454C153.177118 4.54087204 153.177118 4.4684725 153.192216 4.39843 153.192216 4.12220009 154.697408 3.6547341 155.729539 3.6547341 157.600277 3.6547341 158.24536 4.56841763 158.24536 5.90707024L158.24536 9.00934453C158.196518 9.55506617 158.262405 10.1048726 158.438884 10.624227L159.212983 10.624227C159.266192 10.6171161 159.319709 10.6349639 159.357675 10.6724817 159.395642 10.7099995 159.413704 10.7628837 159.406508 10.8154631L159.406508 11.4316683C159.413704 11.4842478 159.395642 11.537132 159.357675 11.5746497 159.319709 11.6121675 159.266192 11.6300153 159.212983 11.6229044L157.815305 11.6229044C157.406753 11.6229044 157.277736 11.0279477 157.191725 10.7729662 156.591533 11.433369 155.745594 11.8244947 154.847927 11.8566438 154.250575 11.8580855 153.679535 11.6139185 153.27166 11.1826527 152.863784 10.7513869 152.655836 10.1718937 152.697653 9.58305279 152.697653 6.86325067 155.966069 6.79950531 156.998201 6.77825685L156.998201 6.20454859C156.998201 5.26961661 156.697162 4.75965372 155.536014 4.75965372 154.841997 4.79815116 154.162462 4.97144112 153.53626 5.26961661 153.502129 5.2850754 153.462877 5.2850754 153.428746 5.26961661L153.192216 4.61091454ZM168.416155 5.26961661 168.416155 5.26961661C167.850887 4.88041076 167.168332 4.69305417 166.480909 4.73840526 165.104733 4.73840526 164.954214 6.31079086 164.954214 7.88317647 164.954214 9.45556207 165.104733 10.7729662 166.394898 10.7729662 167.165829 10.7147896 167.886842 10.3737057 168.416155 9.81678579L168.416155 5.26961661ZM170.88897 11.4316683C170.896166 11.4842478 170.878105 11.537132 170.840138 11.5746497 170.802171 11.6121675 170.748654 11.6300153 170.695446 11.6229044L169.233259 11.6229044C168.824707 11.6229044 168.760199 11.1129415 168.652685 10.9004569 167.979988 11.5160197 167.096692 11.8575699 166.17987 11.8566393 164.395143 11.8566393 163.642547 9.92302806 163.642547 7.92567337 163.642547 5.60959188 164.438148 3.67598256 166.373395 3.67598256 167.132257 3.62007776 167.888464 3.81436635 168.523669 4.22844236L168.523669 1.0624227 167.491537 1.0624227C167.438329 1.06953364 167.384812 1.0516858 167.346845 1.01416804 167.308878.976650275 167.290817.923766079 167.298013.871186618L167.298013.276229903C167.290817.223650442 167.308878.170766246 167.346845.133248483 167.384812.0957307197 167.438329.0778828816 167.491537.0849938164L169.641811.0849938164C169.69502.0778828816 169.748537.0957307197 169.786504.133248483 169.824471.170766246 169.842532.223650442 169.835336.276229903L169.835336 9.6255497C169.789515 9.96401733 169.789515 10.3070079 169.835336 10.6454755L170.759954 10.6454755C170.813162 10.6383646 170.86668 10.6562124 170.904646 10.6937302 170.942613 10.7312479 170.960674 10.7841321 170.953478 10.8367116L170.88897 11.4316683ZM175.705584 7.01198985 175.705584 7.01198985C175.705584 6.18330014 175.426048 4.65341145 174.006867 4.65341145 172.587687 4.65341145 172.179135 6.20454859 172.179135 7.01198985L175.705584 7.01198985ZM176.823726 10.8792085C176.823726 10.8792085 176.823726 10.8792085 176.823726 11.0066992 176.076637 11.5508261 175.171463 11.8415288 174.243398 11.8353889 172.093124 11.8353889 170.802959 10.199258 170.802959 7.73443729 170.802959 5.26961661 172.007113 3.63348565 174.02837 3.63348565 176.759218 3.63348565 176.995748 6.2470455 176.995748 7.62819502 176.995748 7.86192801 176.995748 7.98941874 176.823726 7.98941874L172.22214 7.98941874C172.22214 8.96684763 172.609189 10.7517178 174.372414 10.7517178 175.082587 10.6927267 175.768212 10.4668876 176.372169 10.0930157 176.372169 10.0930157 176.372169 10.0930157 176.372169 10.0930157L176.823726 10.8792085ZM188.112664 10.6029786C188.112664 10.7942147 188.112664 10.9004569 187.962145 11.0279477 187.247489 11.5405807 186.393492 11.8292827 185.510833 11.8566374 182.736979 11.8566374 181.747853 9.3493198 181.747853 5.99206405 181.747853 2.63480831 182.58646.339975265 185.360314.339975265 186.252153.3321983 187.121561.61608365 187.833129 1.14741652 187.944114 1.20510017 188.011206 1.32112186 188.005151 1.44489488L188.005151 3.27226193C188.005151 3.39975265 188.005151 3.46349802 187.833129 3.46349802L187.080533 3.46349802C186.973019 3.46349802 186.908511 3.46349802 186.908511 3.27226193L186.908511 1.89111241C186.459278 1.60535249 185.937549 1.45068473 185.403319 1.44489488 183.661597 1.44489488 183.253045 3.12352275 183.253045 5.84332487 183.253045 8.563127 183.898127 10.7729662 185.575341 10.7729662 186.095436 10.7626551 186.602116 10.6080308 187.037527 10.3267487L187.037527 8.94559917C187.037527 8.81810845 187.037527 8.75436308 187.209549 8.75436308L187.962145 8.75436308C188.069659 8.75436308 188.134167 8.75436308 188.134167 8.94559917L188.112664 10.6029786ZM192.86477 7.73443729 192.86477 7.73443729C192.155179 7.73443729 189.832883 7.73443729 189.832883 9.43431362 189.790593 9.77523348 189.894194 10.1181267 190.118712 10.3803283 190.34323 10.6425299 190.668293 10.8002492 191.015534 10.8154631 191.724259 10.7144629 192.376747 10.377082 192.86477 9.8592827L192.86477 7.73443729ZM189.10179 4.61091454C189.08602 4.54094355 189.08602 4.46840098 189.10179 4.39843 189.10179 4.12220009 190.606982 3.6547341 191.660616 3.6547341 193.531354 3.6547341 194.176437 4.56841763 194.176437 5.90707024L194.176437 9.00934453C194.125694 9.55509243 194.191628 10.1052858 194.369961 10.624227L195.14406 10.624227C195.197269 10.6171161 195.250786 10.6349639 195.288752 10.6724817 195.326719 10.7099995 195.344781 10.7628837 195.337585 10.8154631L195.337585 11.4316683C195.344781 11.4842478 195.326719 11.537132 195.288752 11.5746497 195.250786 11.6121675 195.197269 11.6300153 195.14406 11.6229044L193.724879 11.6229044C193.316327 11.6229044 193.187311 11.0279477 193.1013 10.7729662 192.501107 11.433369 191.655168 11.8244947 190.757501 11.8566438 190.16015 11.8580855 189.589109 11.6139185 189.181234 11.1826527 188.773358 10.7513869 188.565411 10.1718937 188.607227 9.58305279 188.607227 6.86325067 191.875644 6.79950531 192.907775 6.77825685L192.907775 6.20454859C192.907775 5.26961661 192.606737 4.75965372 191.445589 4.75965372 190.751396 4.79703804 190.071644 4.97038344 189.445834 5.26961661 189.412569 5.28859497 189.371585 5.28859497 189.33832 5.26961661L189.10179 4.61091454ZM203.874172 11.4316683C203.881368 11.4842478 203.863307 11.537132 203.82534 11.5746497 203.787373 11.6121675 203.733856 11.6300153 203.680647 11.6229044L200.476739 11.6229044C200.423531 11.6300153 200.370013 11.6121675 200.332047 11.5746497 200.29408 11.537132 200.276019 11.4842478 200.283215 11.4316683L200.283215 10.8154631C200.276019 10.7628837 200.29408 10.7099995 200.332047 10.6724817 200.370013 10.6349639 200.423531 10.6171161 200.476739 10.624227L201.401357 10.624227 201.401357 5.90707024C201.396311 5.56047537 201.338316 5.21662174 201.229335 4.88714444L200.347723 4.88714444C200.298118 4.88752911 200.250759 4.86673379 200.217802 4.83009568 200.184845 4.79345757 200.169498 4.74454383 200.175701 4.69590835L200.175701 4.29218773 199.917668 4.88714444C199.917668 4.88714444 199.917668 4.99338671 199.917668 4.99338671 199.748748 4.91289076 199.566759 4.86253626 199.3801 4.84464753 198.821028 4.84464753 198.240454 5.67333724 197.853405 6.09830632L197.853405 10.624227 198.885537 10.624227C198.938745 10.6171161 198.992262 10.6349639 199.030229 10.6724817 199.068196 10.7099995 199.086257 10.7628837 199.079061 10.8154631L199.079061 11.4316683C199.086257 11.4842478 199.068196 11.537132 199.030229 11.5746497 198.992262 11.6121675 198.938745 11.6300153 198.885537 11.6229044L195.552612 11.6229044C195.499403 11.6300153 195.445886 11.6121675 195.407919 11.5746497 195.369953 11.537132 195.351891 11.4842478 195.359087 11.4316683L195.359087 10.8154631C195.351891 10.7628837 195.369953 10.7099995 195.407919 10.6724817 195.445886 10.6349639 195.499403 10.6171161 195.552612 10.624227L196.47723 10.624227 196.47723 5.90707024C196.473188 5.56038673 196.415168 5.2163836 196.305208 4.88714444L195.423596 4.88714444C195.370387 4.89425538 195.31687 4.87640754 195.278903 4.83888977 195.240936 4.80137201 195.222875 4.74848781 195.230071 4.69590835L195.230071 4.07970318C195.222875 4.02712372 195.240936 3.97423953 195.278903 3.93672176 195.31687 3.899204 195.370387 3.88135616 195.423596 3.8884671L196.885782 3.8884671C197.337339 3.8884671 197.466356 4.71715681 197.530864 5.01463516 197.960919 4.56841763 198.541493 3.6547341 199.487613 3.6547341 199.773338 3.62888935 200.058184 3.71257171 200.283215 3.8884671L201.809909 3.8884671C202.261467 3.8884671 202.390483 4.71715681 202.454991 5.01463516 202.885046 4.56841763 203.46562 3.6547341 204.41174 3.6547341 204.777287 3.6547341 205.207342 3.78222483 205.207342 3.93096401 205.212135 3.97332894 205.212135 4.0160898 205.207342 4.05845473L204.841795 4.88714444C204.841795 4.88714444 204.841795 4.99338671 204.841795 4.99338671 204.672718 4.91330416 204.490804 4.86297051 204.304227 4.84464753 203.723653 4.84464753 203.164582 5.67333724 202.777532 6.09830632L202.777532 10.624227 203.809664 10.624227C203.862872 10.6171161 203.91639 10.6349639 203.954356 10.6724817 203.992323 10.7099995 204.010384 10.7628837 204.003188 10.8154631L203.874172 11.4316683ZM209.185349 7.73443729 209.185349 7.73443729C208.475758 7.73443729 206.153462 7.73443729 206.153462 9.43431362 206.111172 9.77523348 206.214773 10.1181267 206.439291 10.3803283 206.663809 10.6425299 206.988872 10.8002492 207.336113 10.8154631 208.050557 10.703063 208.703793 10.3502835 209.185349 9.81678579L209.185349 7.73443729ZM205.400866 4.61091454C205.385096 4.54094355 205.385096 4.46840098 205.400866 4.39843 205.400866 4.12220009 206.906058 3.6547341 207.959692 3.6547341 209.830431 3.6547341 210.475513 4.56841763 210.475513 5.90707024L210.475513 9.00934453C210.426044 9.55507518 210.491947 10.1050084 210.669038 10.624227L211.443136 10.624227C211.496345 10.6171161 211.549862 10.6349639 211.587829 10.6724817 211.625795 10.7099995 211.643857 10.7628837 211.636661 10.8154631L211.636661 11.4316683C211.643857 11.4842478 211.625795 11.537132 211.587829 11.5746497 211.549862 11.6121675 211.496345 11.6300153 211.443136 11.6229044L210.066961 11.6229044C209.658409 11.6229044 209.529392 11.0279477 209.443381 10.7729662 208.843189 11.433369 207.99725 11.8244947 207.099583 11.8566438 206.502231 11.8580855 205.931191 11.6139185 205.523316 11.1826527 205.11544 10.7513869 204.907492 10.1718937 204.949309 9.58305279 204.949309 6.86325067 208.217725 6.79950531 209.249857 6.77825685L209.249857 6.20454859C209.249857 5.26961661 208.948818 4.75965372 207.787671 4.75965372 207.093739 4.79870067 206.414311 4.97196343 205.787916 5.26961661 205.753785 5.2850754 205.714533 5.2850754 205.680402 5.26961661L205.400866 4.61091454ZM215.39964 4.90839289C215.064317 4.77520075 214.707329 4.70320761 214.346006 4.69590835 214.037769 4.65179595 213.725576 4.74470231 213.493252 4.94968142 213.260928 5.15466052 213.132281 5.4507073 213.141853 5.75833106 213.141853 7.52195275 216.775815 7.0332383 216.775815 9.54055589 216.773756 10.1979613 216.489075 10.823529 215.992748 11.2612929 215.496421 11.6990568 214.835216 11.9077673 214.173984 11.8353889 213.184858 11.8353889 211.701169 11.3679229 211.701169 11.0279477L211.701169 9.51930743C211.693717 9.47234897 211.709425 9.42469898 211.743438 9.39108849 211.77745 9.357478 211.825671 9.34195551 211.873191 9.3493198L212.582781 9.3493198C212.711798 9.3493198 212.754803 9.3493198 212.754803 9.51930743L212.754803 10.4754879C213.230102 10.6523575 213.73102 10.7527911 214.238492 10.7729662 214.573831 10.8093391 214.908928 10.7024651 215.159477 10.4792324 215.410025 10.2559997 215.552173 9.937659 215.550159 9.60430125 215.550159 7.92567337 211.916196 8.28689709 211.916196 5.86457333 211.932073 5.24770746 212.203369 4.6642921 212.666709 4.25061033 213.13005 3.83692856 213.744855 3.62921211 214.367509 3.67598256 215.031079 3.7170871 215.680613 3.88295923 216.281252 4.164697 216.453274 4.164697 216.453274 4.33468463 216.453274 4.41967845L216.453274 5.82207642C216.46047 5.87465588 216.442409 5.92754008 216.404442 5.96505784 216.366475 6.0025756 216.312958 6.02042344 216.25975 6.01331251L215.593165 6.01331251C215.539956 6.02042344 215.486439 6.0025756 215.448472 5.96505784 215.410506 5.92754008 215.392444 5.87465588 215.39964 5.82207642L215.39964 4.90839289ZM222.882593 10.8792085C222.882593 10.8792085 222.882593 10.8792085 222.882593 11.0066992 222.135505 11.5508261 221.23033 11.8415288 220.302265 11.8353889 218.367018 11.8353889 217.227373 10.3267487 217.227373 7.98941874 217.227373 5.29086507 218.53904 3.73972792 220.538795 3.73972792 221.306071 3.77945375 222.048567 4.02157978 222.689069 4.4409269 222.689069 4.4409269 222.689069 4.54716917 222.689069 4.6746599L222.689069 6.05580942C222.689069 6.18330014 222.689069 6.2470455 222.517047 6.2470455L221.807456 6.2470455C221.699943 6.2470455 221.635434 6.2470455 221.635434 6.05580942L221.635434 5.05713207C221.293419 4.86795756 220.909192 4.76573494 220.517292 4.75965372 218.926089 4.75965372 218.367018 5.94956714 218.367018 7.7769342 218.367018 9.24307753 218.668056 10.7942147 220.237756 10.7942147 220.947929 10.7352236 221.633555 10.5093845 222.237511 10.1355126 222.237511 10.1355126 222.237511 10.1355126 222.237511 10.1355126L222.882593 10.8792085ZM228.645327 7.73443729 228.645327 7.73443729C228.645327 6.16205169 228.215273 4.69590835 226.731584 4.69590835 225.247895 4.69590835 224.81784 6.07705787 224.81784 7.67069193 224.81784 9.26432598 225.247895 10.8792085 226.753086 10.8792085 228.258278 10.8792085 228.645327 9.56180434 228.645327 7.73443729ZM226.645573 11.9841281C224.495299 11.9841281 223.506173 10.2205064 223.506173 7.92567337 223.506173 5.63084033 224.452293 3.80347328 226.817595 3.80347328 229.182896 3.80347328 230 5.58834343 230 7.86192801 230 10.1355126 229.032377 11.8566374 226.645573 11.8566374L226.645573 11.9841281ZM9.48180186 5.14212589 9.48180186 5.14212589C9.02131854 4.88133773 8.50632137 4.72866564 7.97661012 4.69590835 6.72945125 4.69590835 6.1488773 5.77957951 6.1488773 7.50070429 6.1488773 9.22182907 6.44991564 10.2842518 7.56805808 10.2842518 8.27573465 10.2195284 8.94505341 9.93713135 9.48180186 9.47681052L9.48180186 5.14212589ZM10.7289607 8.47813318C10.7289607 9.39181671 10.8364744 11.2616807 10.8364744 12.1328673 10.9356072 12.9139621 10.6640756 13.6965119 10.10077 14.253156 9.53746445 14.8098 8.74554968 15.0781206 7.95510738 14.9801601 6.72945125 14.9801601 5.20275678 14.4277003 5.20275678 14.130222 5.1824472 14.0608155 5.1824472 13.9871439 5.20275678 13.9177374L5.46078965 13.3652776C5.49492036 13.3498188 5.53417263 13.3498188 5.56830334 13.3652776 6.23847181 13.7086297 6.96781582 13.9248454 7.71857725 14.0027312 9.24527173 14.0027312 9.41729364 13.1315446 9.41729364 12.260358 9.41729364 11.3891714 9.41729364 10.7942147 9.41729364 10.6029786 8.82854013 11.1403066 8.067474 11.4561743 7.26701973 11.4954137 5.78333073 11.4954137 4.75119926 10.199258 4.75119926 7.92567337 4.75119926 5.65208879 5.74032525 3.67598203 7.82609095 3.67598203 8.53490569 3.67556259 9.22080251 3.92408398 9.76133747 4.37718154 9.91185664 3.97346091 10.0838786 3.67598203 10.2343977 3.67598203L10.3849169 3.67598203 11.11601 4.12220009C11.11601 4.12220009 11.11601 4.12220009 11.11601 4.12220009 11.11601 4.12220009 10.9654909 4.33468463 10.8149717 4.71715681 10.6566308 5.09363732 10.5832513 5.4997033 10.5999443 5.90707024L10.7289607 8.47813318ZM15.7821044 11.3041776C15.7881195 11.3393423 15.7881195 11.3752552 15.7821044 11.4104198 15.7821044 11.5804075 15.0080058 11.8141405 14.4059291 11.8141405 13.7876888 11.8856204 13.1862462 11.5842699 12.8792346 11.0491961 12.7224715 10.2803007 12.6790167 9.49304902 12.7502182 8.71186618L12.7502182 1.0199258 11.6750812 1.0199258C11.6218726 1.02703673 11.5683555 1.00918889 11.5303887.97167113 11.492422.934153366 11.4743606.881269171 11.4815566.828689709L11.4815566.212484541C11.4743606.15990508 11.492422.107020884 11.5303887.0695031207 11.5683555.0319853574 11.6218726.0141375193 11.6750812.0212484541L13.674836.0212484541C13.8683606.0212484541 13.9113661.0212484541 13.9113661.254981449L13.9113661 8.75436308C13.9113661 9.26432598 13.9113661 10.0717672 13.9113661 10.2630033 13.9537116 10.5853166 14.2276347 10.828932 14.5564483 10.8367116 14.8445229 10.8042258 15.1267046 10.7327272 15.3950551 10.624227 15.3950551 10.624227 15.3950551 10.624227 15.5025688 10.624227L15.7821044 11.3041776ZM20.2976796 7.05448676 20.2976796 7.05448676C20.2976796 6.20454859 20.018144 4.69590835 18.5989632 4.69590835 17.1797825 4.69590835 16.7712304 6.2470455 16.7712304 7.05448676L20.2976796 7.05448676ZM21.3513138 10.85796C21.3513138 10.85796 21.3513138 10.85796 21.3513138 10.9854508 20.604225 11.5295776 19.6990508 11.8202803 18.7709851 11.8141405 16.6207112 11.8141405 15.3305469 10.1780095 15.3305469 7.71318883 15.3305469 5.24836816 16.5347003 3.6122372 18.5559578 3.6122372 21.3513138 3.63348565 21.6308495 6.20454859 21.6308495 7.62819502 21.6308495 7.86192801 21.6308495 7.98941874 21.4588275 7.98941874L16.7712304 7.98941874C16.7712304 8.96684763 17.1582797 10.7517178 18.9215043 10.7517178 19.6320167 10.6943632 20.3180246 10.4683981 20.9212591 10.0930157 20.9212591 10.0930157 20.9212591 10.0930157 20.9212591 10.0930157L21.3513138 10.85796ZM25.8453863 4.88714444C25.5104859 4.75256639 25.1532357 4.68052038 24.7917521 4.6746599 24.4835155 4.6305475 24.1713222 4.72345386 23.9389982 4.92843296 23.7066742 5.13341207 23.5780268 5.42945884 23.5875987 5.7370826 23.5875987 7.50070429 27.2215616 7.01198985 27.2215616 9.51930743 27.2195024 10.1767128 26.934821 10.8022805 26.4384939 11.2400444 25.9421668 11.6778083 25.2809618 11.8865189 24.6197302 11.8141405 23.6521069 11.8141405 22.1469152 11.3466745 22.1469152 11.0066992L22.1469152 9.51930743C22.1394628 9.47234897 22.155171 9.42469898 22.1891837 9.39108849 22.2231964 9.357478 22.2714167 9.34195551 22.3189371 9.3493198L23.0285275 9.3493198C23.0760479 9.34195551 23.1242681 9.357478 23.1582809 9.39108849 23.1922936 9.42469898 23.2080018 9.47234897 23.2005494 9.51930743L23.2005494 10.4542394C23.6755345 10.6321835 24.1766311 10.732653 24.6842384 10.7517178 25.0195775 10.7880907 25.3546744 10.6812166 25.6052227 10.4579839 25.855771 10.2347512 25.9979195 9.91641055 25.9959055 9.58305279 25.9959055 7.90442492 22.3619426 8.28689709 22.3619426 5.84332487 22.3656442 5.21500831 22.6347752 4.6167811 23.1043387 4.19311932 23.5739021 3.76945753 24.201208 3.55887801 24.8347576 3.6122372 25.505558 3.651178 26.1625439 3.81708891 26.7700041 4.10095164 26.942026 4.10095164 26.942026 4.27093927 26.942026 4.35593309L26.942026 5.77957951C26.949222 5.83215897 26.9311606 5.88504317 26.8931939 5.92256093 26.8552271 5.9600787 26.80171 5.97792653 26.7485014 5.9708156L26.0819164 5.9708156C26.0287078 5.97792653 25.9751907 5.9600787 25.9372239 5.92256093 25.8992572 5.88504317 25.8811958 5.83215897 25.8883918 5.77957951L25.8453863 4.88714444ZM29.2643218 1.95485778 29.2643218 1.95485778C28.7180426 1.95485778 28.2751958 1.51724796 28.2751958.977428888 28.2751958.437609819 28.7180426 1.17766907e-13 29.2643218 1.17655885e-13 29.810601 1.17558741e-13 30.2534478.437609819 30.2534478.977428888 30.2534478 1.23665915 30.1492366 1.48527201 29.9637395 1.66857548 29.7782424 1.85187896 29.5266544 1.95485778 29.2643218 1.95485778ZM31.4145957 11.3679229C31.4217918 11.4205024 31.4037303 11.4733866 31.3657636 11.5109044 31.3277969 11.5484221 31.2742798 11.56627 31.2210711 11.559159L27.5656054 11.559159C27.5123968 11.56627 27.4588797 11.5484221 27.4209129 11.5109044 27.3829462 11.4733866 27.3648848 11.4205024 27.3720808 11.3679229L27.3720808 10.7942147C27.3648848 10.7416352 27.3829462 10.688751 27.4209129 10.6512333 27.4588797 10.6137155 27.5123968 10.5958677 27.5656054 10.6029786L28.7482561 10.6029786 28.7482561 4.84464753 27.4580917 4.84464753C27.4048831 4.85175847 27.351366 4.83391063 27.3133992 4.79639287 27.2754325 4.7588751 27.2573711 4.70599091 27.2645671 4.65341145L27.2645671 4.07970318C27.2573711 4.02712372 27.2754325 3.97423953 27.3133992 3.93672176 27.351366 3.899204 27.4048831 3.88135616 27.4580917 3.8884671L29.7803876 3.8884671C29.9524095 3.8884671 29.995415 3.8884671 29.995415 4.12220009L29.995415 10.6029786 31.1565629 10.6029786C31.2097716 10.5958677 31.2632886 10.6137155 31.3012554 10.6512333 31.3392221 10.688751 31.3572836 10.7416352 31.3500875 10.7942147L31.4145957 11.3679229ZM35.7151436 7.71318883 35.7151436 7.71318883C35.0055532 7.71318883 32.6832573 7.71318883 32.6832573 9.41306516 32.6409666 9.75398503 32.7445685 10.0968782 32.9690864 10.3590798 33.1936044 10.6212814 33.518667 10.7790007 33.865908 10.7942147 34.5880581 10.6864821 35.2496034 10.3333219 35.7366463 9.79553733L35.7151436 7.71318883ZM31.9091587 4.56841763C31.8940606 4.49837513 31.8940606 4.42597559 31.9091587 4.35593309 31.9091587 4.07970318 33.4143505 3.6122372 34.446482 3.6122372 36.3172203 3.6122372 36.9623024 4.52592072 36.9623024 5.86457333L36.9623024 8.98809608C36.9128339 9.53382673 36.9787369 10.08376 37.1558271 10.6029786L37.9299257 10.6029786C37.9831344 10.5958677 38.0366515 10.6137155 38.0746182 10.6512333 38.1125849 10.688751 38.1306464 10.7416352 38.1234503 10.7942147L38.1234503 11.4104198C38.1306464 11.4629993 38.1125849 11.5158835 38.0746182 11.5534013 38.0366515 11.590919 37.9831344 11.6087669 37.9299257 11.6016559L36.4032312 11.6016559C35.9946792 11.6016559 35.8656627 11.0066992 35.7796518 10.7517178 35.1794593 11.4121205 34.3335201 11.8032462 33.4358532 11.8353953 32.8385018 11.836837 32.2674614 11.59267 31.8595859 11.1614043 31.4517104 10.7301385 31.2437628 10.1506453 31.2855793 9.56180434 31.2855793 6.84200222 34.5539956 6.77825685 35.5861271 6.7570084L35.5861271 6.20454859C35.5861271 5.26961661 35.2850888 4.75965372 34.1239409 4.75965372 33.4298358 4.79759697 32.7501932 4.97091447 32.1241861 5.26961661 32.0900554 5.2850754 32.0508031 5.2850754 32.0166724 5.26961661L31.9091587 4.56841763ZM48.8318144 11.3679229C48.8318144 11.559159 48.8318144 11.6016559 48.5952843 11.6016559L42.3379872 11.6016559C42.2847785 11.6087669 42.2312614 11.590919 42.1932947 11.5534013 42.1553279 11.5158835 42.1372665 11.4629993 42.1444626 11.4104198L42.1444626 10.7304693C42.0829256 10.6727607 42.0731526 10.579336 42.1214425 10.5104088 42.1697324 10.4414816 42.2616645 10.4176354 42.3379872 10.4542394L43.3701187 10.4542394 43.3701187 1.59363406 42.3379872 1.59363406C42.2847785 1.60074499 42.2312614 1.58289715 42.1932947 1.54537939 42.1553279 1.50786163 42.1372665 1.45497743 42.1444626 1.40239797L42.1444626.743695893C42.1372665.691116432 42.1553279.638232236 42.1932947.600714473 42.2312614.56319671 42.2847785.545348872 42.3379872.552459806L48.4877706.552459806C48.6597925.552459806 48.702798.552459806 48.702798.786192801L48.702798 2.91103821C48.702798 3.03852893 48.702798 3.1022743 48.5307761 3.1022743L47.7781802 3.1022743C47.6706665 3.1022743 47.6061583 3.1022743 47.6061583 2.91103821L47.6061583 1.67862787 44.7032885 1.67862787 44.7032885 5.24836816 47.9071966 5.24836816C48.0792185 5.24836816 48.122224 5.24836816 48.122224 5.4608527L48.122224 6.20454859C48.122224 6.37453623 48.122224 6.41703313 47.9071966 6.41703313L44.7032885 6.41703313 44.7032885 10.4542394 47.713672 10.4542394 47.713672 9.00934453C47.7062196 8.96238607 47.7219278 8.91473608 47.7559405 8.88112559 47.7899532 8.84751511 47.8381735 8.83199261 47.8856939 8.8393569L48.616787 8.8393569C48.7458035 8.8393569 48.8103117 8.8393569 48.8103117 9.00934453L48.8318144 11.3679229ZM52.9603403 11.6654013C52.9603403 11.7716436 52.9603403 11.8141405 52.7453129 11.8141405L52.1002308 11.8141405C51.9497116 11.8141405 51.9282088 11.8141405 51.9067061 11.6654013L49.4123884 4.84464753 48.8748199 4.84464753C48.8216112 4.85175847 48.7680941 4.83391063 48.7301274 4.79639287 48.6921606 4.7588751 48.6740992 4.70599091 48.6812952 4.65341145L48.6812952 4.07970318C48.6740992 4.02712372 48.6921606 3.97423953 48.7301274 3.93672176 48.7680941 3.899204 48.8216112 3.88135616 48.8748199 3.8884671L51.6486732 3.8884671C51.7561869 3.8884671 51.8206951 3.8884671 51.8206951 4.07970318L51.8206951 4.65341145C51.8206951 4.78090217 51.8206951 4.82339908 51.6486732 4.82339908L50.7240555 4.82339908 52.164739 9.0730899C52.2722527 9.41306516 52.3797664 9.77428888 52.4657773 10.0930157L52.4657773 10.0930157C52.5366909 9.75214257 52.6374151 9.41799585 52.7668157 9.09433835L54.3580184 4.84464753 53.3903951 4.84464753C53.2613787 4.84464753 53.2183732 4.84464753 53.2183732 4.6746599L53.2183732 4.07970318C53.2183732 3.95221246 53.2183732 3.8884671 53.3903951 3.8884671L56.121243 3.8884671C56.1744517 3.88135616 56.2279687 3.899204 56.2659355 3.93672176 56.3039022 3.97423953 56.3219637 4.02712372 56.3147676 4.07970318L56.3147676 4.69590835C56.3219637 4.74848781 56.3039022 4.80137201 56.2659355 4.83888977 56.2279687 4.87640754 56.1744517 4.89425538 56.121243 4.88714444L55.7556964 4.88714444 52.9603403 11.6654013ZM60.2067634 7.73443729 60.2067634 7.73443729C59.497173 7.73443729 57.1748772 7.73443729 57.1748772 9.43431362 57.1325865 9.77523348 57.2361883 10.1181267 57.4607063 10.3803283 57.6852242 10.6425299 58.0102869 10.8002492 58.3575278 10.8154631 59.0802607 10.7094569 59.7423649 10.3559983 60.2282661 9.81678579L60.2067634 7.73443729ZM56.4222813 4.56841763C56.4071832 4.49837513 56.4071832 4.42597559 56.4222813 4.35593309 56.4222813 4.07970318 57.9274731 3.6122372 58.9811073 3.6122372 60.8518456 3.6122372 61.4969277 4.52592072 61.4969277 5.86457333L61.4969277 8.98809608C61.4468257 9.53383548 61.5127441 10.0838977 61.6904524 10.6029786L62.464551 10.6029786C62.5177597 10.5958677 62.5712768 10.6137155 62.6092435 10.6512333 62.6472103 10.688751 62.6652717 10.7416352 62.6580757 10.7942147L62.6580757 11.4104198C62.6652717 11.4629993 62.6472103 11.5158835 62.6092435 11.5534013 62.5712768 11.590919 62.5177597 11.6087669 62.464551 11.6016559L61.066873 11.6016559C60.6583209 11.6016559 60.5293045 11.0066992 60.4432935 10.7517178 59.843101 11.4121205 58.9971619 11.8032462 58.099495 11.8353953 57.5021436 11.836837 56.9311032 11.59267 56.5232276 11.1614043 56.1153521 10.7301385 55.9074045 10.1506453 55.9492211 9.56180434 55.9492211 6.84200222 59.2176374 6.77825685 60.2497689 6.7570084L60.2497689 6.20454859C60.2497689 5.26961661 59.9487305 4.75965372 58.7875826 4.75965372 58.0934776 4.79759697 57.413835 4.97091447 56.7878279 5.26961661 56.7536972 5.2850754 56.7144449 5.2850754 56.6803142 5.26961661L56.4222813 4.56841763ZM70.5925864 11.4104198C70.5997824 11.4629993 70.581721 11.5158835 70.5437542 11.5534013 70.5057875 11.590919 70.4522704 11.6087669 70.3990617 11.6016559L68.4423125 11.6016559C68.3891038 11.6087669 68.3355867 11.590919 68.29762 11.5534013 68.2596532 11.5158835 68.2415918 11.4629993 68.2487878 11.4104198L68.2487878 6.01331251C68.2487878 5.31211352 68.0767659 4.69590835 67.1951536 4.69590835 66.3767987 4.73201983 65.6051398 5.08278527 65.0448797 5.67333724L65.0448797 10.6029786 65.9694975 10.6029786C66.0227062 10.5958677 66.0762232 10.6137155 66.11419 10.6512333 66.1521567 10.688751 66.1702182 10.7416352 66.1630221 10.7942147L66.1630221 11.4104198C66.1702182 11.4629993 66.1521567 11.5158835 66.11419 11.5534013 66.0762232 11.590919 66.0227062 11.6087669 65.9694975 11.6016559L62.873103 11.6016559C62.8198944 11.6087669 62.7663773 11.590919 62.7284105 11.5534013 62.6904438 11.5158835 62.6723824 11.4629993 62.6795784 11.4104198L62.6795784 10.7942147C62.6723824 10.7416352 62.6904438 10.688751 62.7284105 10.6512333 62.7663773 10.6137155 62.8198944 10.5958677 62.873103 10.6029786L63.7977208 10.6029786 63.7977208 5.86457333C63.8440588 5.52613988 63.8440588 5.18308098 63.7977208 4.84464753L62.873103 4.84464753C62.8198944 4.85175847 62.7663773 4.83391063 62.7284105 4.79639287 62.6904438 4.7588751 62.6723824 4.70599091 62.6795784 4.65341145L62.6795784 4.07970318C62.6723824 4.02712372 62.6904438 3.97423953 62.7284105 3.93672176 62.7663773 3.899204 62.8198944 3.88135616 62.873103 3.8884671L64.356792 3.8884671C64.7223386 3.8884671 64.7868468 4.52592072 64.8728578 4.75965372 65.5867378 4.0951349 66.516696 3.70344668 67.496192 3.6547341 69.302422 3.6547341 69.4314385 4.90839289 69.4314385 6.07705787L69.4314385 10.6029786 70.3345535 10.6029786C70.3877622 10.5958677 70.4412793 10.6137155 70.479246 10.6512333 70.5172128 10.688751 70.5352742 10.7416352 70.5280782 10.7942147L70.5925864 11.4104198ZM75.4737082 5.14212589 75.4737082 5.14212589C75.0129217 4.88203537 74.4980921 4.72941296 73.9685164 4.69590835 72.7213576 4.69590835 72.1407836 5.77957951 72.1407836 7.50070429 72.1407836 9.22182907 72.4418219 10.2842518 73.5599644 10.2842518 74.2672833 10.218135 74.9361887 9.93591239 75.4737082 9.47681052L75.4737082 5.14212589ZM76.720867 8.47813318C76.720867 9.39181671 76.8283807 11.2616807 76.8283807 12.1328673 76.9275135 12.9139621 76.6559819 13.6965119 76.0926763 14.253156 75.5293707 14.8098 74.737456 15.0781206 73.9470137 14.9801601 72.7213576 14.9801601 71.1946631 14.4277003 71.1946631 14.130222 71.1743535 14.0608155 71.1743535 13.9871439 71.1946631 13.9177374L71.4526959 13.3652776C71.4868267 13.3498188 71.5260789 13.3498188 71.5602096 13.3652776 72.2303781 13.7086297 72.9597221 13.9248454 73.7104836 14.0027312 75.237178 14.0027312 75.4091999 13.1315446 75.4091999 12.260358 75.4091999 11.3891714 75.4091999 10.7942147 75.4091999 10.6029786 74.8194497 11.1387736 74.0589704 11.4543977 73.258926 11.4954137 71.775237 11.4954137 70.7431056 10.199258 70.7431056 7.92567337 70.7431056 5.65208879 71.7322316 3.67598203 73.8179972 3.67598203 74.526812 3.67556259 75.2127088 3.92408398 75.7532438 4.37718154 75.9037629 3.97346091 76.0757849 3.67598203 76.226304 3.67598203L76.3768232 3.67598203 77.2584355 4.07970318C77.2584355 4.07970318 77.2584355 4.07970318 77.2584355 4.07970318 77.2584355 4.07970318 77.1079163 4.29218773 76.9573972 4.6746599 76.7997169 5.05133158 76.7263635 5.45725297 76.7423698 5.86457333L76.720867 8.47813318ZM79.6667423 2.67730522 79.6667423 2.67730522 79.4947204 2.67730522C79.4947204 2.67730522 79.4947204 2.67730522 79.3442012 2.54981449L79.193682 2.3160815C79.179998 2.2602257 79.179998 2.20194966 79.193682 2.14609386 79.193682 2.14609386 79.193682 2.14609386 79.3226985 1.99735468L81.5589833.254981449C81.6151034.238447541 81.6748852.238447541 81.7310052.254981449 81.7310052.254981449 81.8600217.254981449 81.9030272.382472174L82.3760874 1.08367116C82.3928192 1.13912757 82.3928192 1.19820238 82.3760874 1.25365879 82.3760874 1.25365879 82.3760874 1.35990106 82.2255682 1.40239797L79.6667423 2.67730522ZM82.5696121 6.92699603 82.5696121 6.92699603C82.5696121 6.07705787 82.2900765 4.56841763 80.8708957 4.56841763 79.4517149 4.56841763 79.0431628 6.11955478 79.0431628 6.92699603L82.5696121 6.92699603ZM83.7092572 10.85796C83.7092572 10.85796 83.7092572 10.85796 83.7092572 10.9854508 82.9621684 11.5295776 82.0569942 11.8202803 81.1289285 11.8141405 78.9786546 11.8141405 77.6884903 10.1780095 77.6884903 7.71318883 77.6884903 5.24836816 78.8926437 3.6122372 80.9139012 3.6122372 83.7092572 3.63348565 83.9242846 6.20454859 83.9242846 7.62819502 83.9242846 7.86192801 83.9242846 7.98941874 83.7522627 7.98941874L79.0646656 7.98941874C79.0646656 8.96684763 79.4517149 10.7517178 81.2149395 10.7517178 81.9252815 10.6935408 82.6110967 10.4676391 83.2146942 10.0930157 83.2146942 10.0930157 83.2146942 10.0930157 83.2146942 10.0930157L83.7092572 10.85796ZM89.7515269 1.95485778 89.7515269 1.95485778C89.2052477 1.95485778 88.7624009 1.51724796 88.7624009.977428888 88.7624009.437609819 89.2052477 1.5840107e-13 89.7515269 1.58303926e-13 90.3037439 1.58456581e-13 90.7514043.442366448 90.7514043.988053115 90.7514043 1.53373978 90.3037439 1.97610623 89.7515269 1.97610623L89.7515269 1.95485778ZM91.9018008 11.3679229C91.9089969 11.4205024 91.8909354 11.4733866 91.8529687 11.5109044 91.8150019 11.5484221 91.7614849 11.56627 91.7082762 11.559159L88.0098051 11.559159C87.6336743 11.7088922 87.2326309 11.7881524 86.8271544 11.792892 86.2089141 11.8643719 85.6074714 11.5630214 85.3004599 11.0279477 85.107346 10.2642922 85.0276685 9.47693947 85.0639298 8.69061772L85.0639298 1.0199258 84.139312 1.0199258C84.0861033 1.02703673 84.0325863 1.00918889 83.9946195.97167113 83.9566528.934153366 83.9385913.881269171 83.9457874.828689709L83.9457874.212484541C83.9385913.15990508 83.9566528.107020884 83.9946195.0695031207 84.0325863.0319853574 84.0861033.0141375193 84.139312.0212484541L86.1390668.0212484541C86.3325914.0212484541 86.3755969.0212484541 86.3755969.254981449L86.3755969 8.75436308C86.3755969 9.26432598 86.3755969 10.0717672 86.3755969 10.2630033 86.4088457 10.5899541 86.6881533 10.8383583 87.0206791 10.8367116 87.3087044 10.803962 87.5908501 10.7324725 87.8592859 10.624227L89.170953 10.624227 89.170953 4.84464753 88.0098051 4.84464753C87.9565964 4.85175847 87.9030793 4.83391063 87.8651125 4.79639287 87.8271458 4.7588751 87.8090844 4.70599091 87.8162804 4.65341145L87.8162804 4.07970318C87.7907671 4.02135889 87.8003232 3.95382365 87.8410525 3.90463211 87.8817817 3.85544057 87.9468796 3.83281121 88.0098051 3.84597019L90.160079 3.84597019C90.3321009 3.84597019 90.3751064 3.84597019 90.3751064 4.07970318L90.3751064 10.6029786 91.5362543 10.6029786C91.589463 10.5958677 91.64298 10.6137155 91.6809468 10.6512333 91.7189135 10.688751 91.736975 10.7416352 91.7297789 10.7942147L91.9018008 11.3679229ZM97.6645349 10.8154631C97.6645349 10.8154631 97.6645349 10.8154631 97.6645349 10.9429539 96.9174461 11.4870807 96.0122719 11.7777834 95.0842062 11.7716436 93.1489597 11.7716436 92.0093145 10.2630033 92.0093145 7.92567337 92.0093145 5.22711971 93.3209816 3.67598256 95.3207363 3.67598256 96.0880125 3.71570839 96.8305083 3.95783442 97.4710103 4.37718154 97.4710103 4.37718154 97.4710103 4.48342381 97.4710103 4.61091454L97.4710103 5.99206405C97.4710103 6.11955478 97.4710103 6.18330014 97.2989883 6.18330014L96.6109007 6.18330014C96.6109007 6.20454859 96.6109007 6.09830632 96.6109007 5.94956714L96.6109007 5.01463516C96.2688855 4.82546065 95.8846577 4.72323803 95.4927583 4.71715681 93.9015556 4.71715681 93.3424844 5.88582178 93.3424844 7.73443729 93.3424844 9.20058062 93.6435227 10.7517178 95.2132227 10.7517178 95.9235646 10.6935408 96.6093799 10.4676391 97.2129774 10.0930157 97.2129774 10.0930157 97.2129774 10.0930157 97.2129774 10.0930157L97.6645349 10.8154631ZM102.373635 7.71318883 102.373635 7.71318883C101.664044 7.71318883 99.3417486 7.71318883 99.3417486 9.41306516 99.2994578 9.75398503 99.4030597 10.0968782 99.6275776 10.3590798 99.8520956 10.6212814 100.177158 10.7790007 100.524399 10.7942147 101.238843 10.6818146 101.89208 10.3290351 102.373635 9.79553733L102.373635 7.71318883ZM98.5031417 4.56841763C98.4873715 4.49844664 98.4873715 4.42590407 98.5031417 4.35593309 98.5031417 4.07970318 100.008333 3.6122372 101.040465 3.6122372 102.911203 3.6122372 103.556285 4.52592072 103.556285 5.86457333L103.556285 8.98809608C103.505543 9.53384398 103.571477 10.0840373 103.74981 10.6029786L104.523909 10.6029786C104.577117 10.5958677 104.630634 10.6137155 104.668601 10.6512333 104.706568 10.688751 104.724629 10.7416352 104.717433 10.7942147L104.717433 11.4104198C104.724629 11.4629993 104.706568 11.5158835 104.668601 11.5534013 104.630634 11.590919 104.577117 11.6087669 104.523909 11.6016559L103.061722 11.6016559C102.65317 11.6016559 102.524154 11.0066992 102.438143 10.7517178 101.83795 11.4121205 100.992011 11.8032462 100.094344 11.8353953 99.496993 11.836837 98.9259526 11.59267 98.5180771 11.1614043 98.1102016 10.7301385 97.902254 10.1506453 97.9440705 9.56180434 97.9440705 6.84200222 101.212487 6.77825685 102.244618 6.7570084L102.244618 6.20454859C102.244618 5.26961661 101.94358 4.75965372 100.782432 4.75965372 100.088414 4.79815116 99.4088796 4.97144112 98.7826773 5.26961661 98.7485466 5.2850754 98.7092944 5.2850754 98.6751636 5.26961661L98.5031417 4.56841763ZM4.72969652 11.4104198C4.73689255 11.4629993 4.71883112 11.5158835 4.68086438 11.5534013 4.64289763 11.590919 4.58938056 11.6087669 4.53617186 11.6016559L.235624045 11.6016559C.182415354 11.6087669.128898281 11.590919.0909315339 11.5534013.0529647871 11.5158835.03490336 11.4629993.0420993929 11.4104198L.0420993929 10.7304693C-.00714944768 10.6743873-.0138624522 10.5932069.0255194557 10.5299681.0649013637 10.4667293.141263841 10.4360677.214121306 10.4542394L1.6978103 10.4542394 1.6978103 1.59363406.214121306 1.59363406C.160912614 1.60074499.107395542 1.58289715.0694287948 1.54537939.031462048 1.50786163.0134006209 1.45497743.0205966538 1.40239797L.0205966538.743695893C.0134006209.691116432.031462048.638232236.0694287948.600714473.107395542.56319671.160912614.545348872.214121306.552459806L4.51466913.552459806C4.56787782.545348872 4.62139489.56319671 4.65936164.600714473 4.69732838.638232236 4.71538981.691116432 4.70819378.743695893L4.70819378 1.40239797C4.71538981 1.45497743 4.69732838 1.50786163 4.65936164 1.54537939 4.62139489 1.58289715 4.56787782 1.60074499 4.51466913 1.59363406L3.03098013 1.59363406 3.03098013 10.4542394 4.51466913 10.4542394C4.56787782 10.4471285 4.62139489 10.4649763 4.65936164 10.5024941 4.69732838 10.5400118 4.71538981 10.592896 4.70819378 10.6454755L4.72969652 11.4104198Z" transform="translate(0 42)"/></g></svg>