<svg xmlns="http://www.w3.org/2000/svg" width="516" height="516" viewBox="0 0 516 516"><path d="M139 5.48C139.256771 5.46090301 139.460903 5.25677102 139.48 5 139.48 4.87269608 139.429429 4.75060621 139.339411 4.66058875 139.249394 4.57057128 139.127304 4.52 139 4.52 138.734903 4.52 138.52 4.73490332 138.52 5 138.52 5.26509668 138.734903 5.48 139 5.48ZM165.5 8C166.880712 8 168 6.88071187 168 5.5 168 4.11928813 166.880712 3 165.5 3 164.119288 3 163 4.11928813 163 5.5 163 6.88071187 164.119288 8 165.5 8L165.5 8ZM192.5 10C194.985281 10 197 7.98528137 197 5.5 197 3.01471863 194.985281 1 192.5 1 190.014719 1 188 3.01471863 188 5.5 188 7.98528137 190.014719 10 192.5 10ZM219 11C221.761424 11 224 8.76142375 224 6 224 3.23857625 221.761424 1 219 1 216.238576 1 214 3.23857625 214 6 214 8.76142375 216.238576 11 219 11ZM246.500083 10.9998332C248.728457 10.9997663 250.736571 9.65511369 251.585295 7.59472583 252.434019 5.53433797 251.955602 3.16545193 250.373784 1.5959188 248.791967.0263856738 246.419396-.433575231 244.365646.431144869 242.311896 1.29586497 240.982892 3.31435354 241.000166 5.54262902 241.000122 6.99738683 241.580933 8.39194848 242.613611 9.41660723 243.64629 10.441266 245.045349 11.0111985 246.500083 10.9998332ZM273.000088 10.9998359C275.026024 10.99977 276.851676 9.77718744 277.623148 7.90391765 278.394619 6.03064787 277.959404 3.87699798 276.521063 2.45027859 275.082722 1.0235592 272.925586.605803562 271.058595 1.39240541 269.191604 2.17900726 267.983826 4.01447149 268.000164 6.0403101 268.00012 7.36267413 268.528179 8.63029818 269.467024 9.56155748 270.405869 10.4928168 271.677747 11.0105868 273.000088 10.9998359ZM299.000124 10.9997986C301.02645 10.9997179 302.852364 9.77666195 303.623569 7.9028676 304.394773 6.02907325 303.958755 3.87510074 302.519516 2.44873893 301.080276 1.02237712 298.922439.605702334 297.055601 1.3936661 295.188763 2.18162986 293.982108 4.018405 294.000201 6.04461122 294.000147 7.36657993 294.528343 8.63376398 295.467317 9.56433586 296.40629 10.4949077 297.678184 11.0117083 299.000124 10.9997986ZM326.457004 8.9997347C327.880314 9.01720059 329.172426 8.17093483 329.725202 6.85923585 330.277978 5.54753688 329.981294 4.03172108 328.974787 3.02521333 327.968279 2.01870559 326.452463 1.72202216 325.140764 2.27479832 323.829065 2.82757447 322.982799 4.11968625 323.000265 5.542996 323.000265 7.45210007 324.5479 8.9997347 326.457004 8.9997347ZM352.980286 6.49971383C353.37969 6.51051251 353.766493 6.35936471 354.052759 6.08063183 354.339025 5.80189895 354.500432 5.419264 354.500286 5.01971383 354.500286 4.18024101 353.819759 3.49971383 352.980286 3.49971383 352.580736 3.49956788 352.198101 3.66097484 351.919368 3.94724104 351.640635 4.23350724 351.489487 4.62030959 351.500286 5.01971383 351.489129 5.41554917 351.641472 5.79851024 351.921481 6.07851926 352.20149 6.35852827 352.584451 6.51087083 352.980286 6.49971383L352.980286 6.49971383ZM112.374267 34.9764926C113.874593 34.7878492 115 33.5121039 115 32 115 30.4878961 113.874593 29.2121508 112.374267 29.0235074 111.221656 28.8785839 110.088977 29.4121068 109.466704 30.3930489 108.844432 31.3739911 108.844432 32.6260089 109.466704 33.6069511 110.088977 34.5878932 111.221656 35.1214161 112.374267 34.9764926ZM138.959767 36.9998376C140.989294 37.0161398 142.827319 35.8039631 143.611535 33.931998 144.395751 32.0600329 143.970548 29.8997298 142.535409 28.4645907 141.10027 27.0294516 138.939967 26.6042485 137.068002 27.3884646 135.196037 28.1726807 133.98386 30.0107056 134.000162 32.0402332 134.000162 34.7793471 136.220653 36.9998376 138.959767 36.9998376L138.959767 36.9998376ZM165.500018 40C168.537443 39.9998167 171.274924 38.1677322 172.433131 35.3598188 173.591339 32.5519054 172.941553 29.322664 170.787443 27.1812425 168.633333 25.039821 165.400289 24.4091028 162.599235 25.5838467 159.798181 26.7585906 157.982263 29.5068106 158 32.5441584 158 34.5292034 158.791665 36.4323091 160.19945 37.8318012 161.607234 39.2312934 163.514992 40.0116151 165.500018 40ZM192.5 41C197.19442 41 201 37.1944204 201 32.5 201 27.8055796 197.19442 24 192.5 24 187.80558 24 184 27.8055796 184 32.5 184 37.1944204 187.80558 41 192.5 41ZM219.457165 42C223.307234 42.0172073 226.787035 39.7090071 228.268397 36.1552918 229.749759 32.6015765 228.939714 28.5051595 226.217277 25.7827225 223.494841 23.0602856 219.398423 22.2502414 215.844708 23.7316033 212.290993 25.2129652 209.982793 28.6927664 210 32.5428347 210.023527 37.7560934 214.243907 41.9764726 219.457165 42ZM245.999946 42C250.048457 42 253.697486 39.5588439 255.242691 35.8168132 256.787896 32.0747825 255.924352 27.7702763 253.055392 24.9137892 250.186433 22.0573022 245.878207 21.212522 242.142947 22.7740181 238.407687 24.3355141 235.982493 27.9951471 236 32.0436214 236.024034 37.5494028 240.494116 42 245.999946 42ZM272.956282 42C277.008738 42.0175624 280.671179 39.5876724 282.230155 35.847043 283.789131 32.1064135 282.936365 27.7947282 280.070818 24.9291816 277.205272 22.063635 272.893587 21.2108691 269.152957 22.7698451 265.412328 24.328821 262.982438 27.991262 263 32.0437184 263 37.5423681 267.457632 42 272.956282 42ZM299.49996 42C303.346269 42 306.813 39.6805372 308.280795 36.1253229 309.748591 32.5701086 308.927767 28.4806578 306.201742 25.767208 303.475717 23.0537581 299.382499 22.2518359 295.834085 23.73603 292.285671 25.2202241 289.982377 28.6976138 290 32.5438636 290 35.0593635 291.002345 37.4712012 292.785183 39.2458156 294.568022 41.0204299 296.984475 42.0115444 299.49996 42Z"/><circle cx="326.182" cy="32.34" r="8.204" transform="rotate(-9.25 326.182 32.34)"/><path d="M353.456135 38.9998516C356.093009 39.0176089 358.479317 37.440504 359.496625 35.0077058 360.513933 32.5749075 359.960626 29.7685622 358.096032 27.903968 356.231438 26.0393737 353.425092 25.4860668 350.992294 26.5033751 348.559496 27.5206834 346.982391 29.9069907 347.000148 32.5438654 347.000148 36.1094081 349.890592 38.9998516 353.456135 38.9998516ZM379.5 36C381.985281 36 384 33.9852814 384 31.5 384 29.0147186 381.985281 27 379.5 27 377.014719 27 375 29.0147186 375 31.5 375 33.9852814 377.014719 36 379.5 36ZM407.000754 33.0400125C407.424968 33.0396987 407.806474 32.7817629 407.964818 32.388209 408.123163 31.994655 408.026606 31.544373 407.720818 31.2503464 407.41503 30.9563199 406.961309 30.877488 406.574265 31.0511384 406.187221 31.2247888 405.944439 31.6161122 405.960754 32.0400125 405.982258 32.59871 406.441643 33.0404262 407.000754 33.0400125ZM86 63C88.209139 63 90 61.209139 90 59 90 56.790861 88.209139 55 86 55 83.790861 55 82 56.790861 82 59 82 61.209139 83.790861 63 86 63ZM111.956691 66C114.791753 66.0173664 117.357402 64.3230375 118.454481 61.7087902 119.55156 59.094543 118.963391 56.0767039 116.964877 54.0657789 114.966364 52.0548539 111.952222 51.4480103 109.33123 52.5288804 106.710238 53.6097505 105 56.1648573 105 58.9999709 105 62.8490945 108.107638 65.9761057 111.956691 66L111.956691 66ZM139.50005 69C144.746727 69 149 64.7466281 149 59.4999504 149 54.2532727 144.746727 50 139.50005 50 134.253372 50 130 54.2532727 130 59.4999504 129.988552 62.0230162 130.985728 64.4460808 132.769824 66.2301764 134.553919 68.014272 136.976984 69.0114482 139.50005 69ZM166.000043 70C172.075152 70 177 65.0750649 177 58.9999566 177 52.9248483 172.075152 48 166.000043 48 159.924935 48 155 52.9248483 155 58.9999566 154.988473 61.9208715 156.143663 64.7255066 158.209078 66.7909216 160.274493 68.8563366 163.079129 70.0115274 166.000043 70L166.000043 70Z"/><circle cx="193" cy="59" r="12"/><path d="M219.456266,72 C224.515898,72.0175531 229.087135,68.9832739 231.0356,64.3138366 C232.984065,59.6443992 231.925411,54.2608781 228.353939,50.6769199 C224.782467,47.0929617 219.402672,46.0155237 214.72646,47.9476778 C210.050248,49.8798319 207,54.4404491 207,59.500109 C207,66.386593 212.569821,71.9759289 219.456266,72 L219.456266,72 Z"/><circle cx="245.5" cy="58.5" r="12.5"/><path d="M272.5 71C279.403559 71 285 65.4035594 285 58.5 285 51.5964406 279.403559 46 272.5 46 265.596441 46 260 51.5964406 260 58.5 260 65.4035594 265.596441 71 272.5 71L272.5 71ZM300.000038 71C306.627434 71 312 65.6273579 312 58.999962 312 52.372566 306.627434 47 300.000038 47 293.372642 47 288 52.372566 288 58.999962 287.988717 62.1860183 289.249348 65.2448596 291.502244 67.4977559 293.75514 69.7506523 296.813982 71.0112825 300.000038 71ZM326.5 71C332.851275 71 338 65.8512746 338 59.5 338 53.1487254 332.851275 48 326.5 48 320.148725 48 315 53.1487254 315 59.5 315 65.8512746 320.148725 71 326.5 71ZM353.455917 69C357.706662 69.0176931 361.54875 66.4707957 363.187779 62.5487145 364.826807 58.6266332 363.939361 54.1032764 360.939912 51.0912261 357.940463 48.0791758 353.420865 47.1727722 349.491944 48.7953408 345.563023 50.4179093 343 54.2492834 343 58.5000637 343 64.2818538 347.674174 68.9757159 353.455917 69Z"/><circle cx="380" cy="59" r="8"/><path d="M406.5 65C409.537566 65 412 62.5375661 412 59.5 412 56.4624339 409.537566 54 406.5 54 403.462434 54 401 56.4624339 401 59.5 401 60.9586907 401.579463 62.3576372 402.610913 63.3890873 403.642363 64.4205374 405.041309 65 406.5 65L406.5 65ZM433 60.72C433.94993 60.72 434.72 59.9499298 434.72 59 434.698845 58.058972 433.941028 57.3011547 433 57.28 432.05007 57.28 431.28 58.0500702 431.28 59 431.28 59.9499298 432.05007 60.72 433 60.72L433 60.72ZM58.9569338 89.9997672C60.5785602 90.017205 62.0502332 89.0537852 62.682923 87.560576 63.3156128 86.0673669 62.9840926 84.3399156 61.8435785 83.1870062 60.7030644 82.0340968 58.9792955 81.6839219 57.4793318 82.3004315 55.9793682 82.916941 55.0000938 84.378111 55 85.9998288 54.9998733 88.1922457 56.7646406 89.9761928 58.9569338 89.9997672ZM85.4998904 93C88.5333129 93 91.2680451 91.1727104 92.4288856 88.3701934 93.5897262 85.5676764 92.9480674 82.3418399 90.8031137 80.1968863 88.6581601 78.0519326 85.4323236 77.4102738 82.6298066 78.5711144 79.8272896 79.7319549 78 82.4666871 78 85.5001096 78 89.6421847 81.3578153 93 85.4998904 93L85.4998904 93ZM112.500046 96C118.299011 96 123 91.2989178 123 85.4999536 123 79.7009893 118.299011 75 112.500046 75 106.701082 75 102 79.7009893 102 85.4999536 101.988352 88.2882971 103.090824 90.9658282 105.062498 92.9375023 107.034172 94.9091764 109.711703 96.0116477 112.500046 96L112.500046 96ZM139 98C145.627417 98 151 92.627417 151 86 151 79.372583 145.627417 74 139 74 132.372583 74 127 79.372583 127 86 127 92.627417 132.372583 98 139 98ZM166 99C173.179702 99 179 93.1797017 179 86 179 78.8202983 173.179702 73 166 73 158.820298 73 153 78.8202983 153 86 153 93.1797017 158.820298 99 166 99ZM192.456116 99C197.920219 99.0176121 202.85613 95.7397267 204.959416 90.6966227 207.062702 85.6535187 205.918525 79.8398629 202.061068 75.9698832 198.203611 72.0999035 192.393692 70.9368878 187.343795 73.0238146 182.293898 75.1107414 179 80.0359998 179 85.5001288 179 92.9388342 185.017447 98.9758553 192.456116 99L192.456116 99Z"/><path d="M219.456397,99 C224.920475,99.0174992 229.8563,95.7395413 231.959497,90.696428 C234.062694,85.6533147 232.918447,79.8397047 229.060968,75.9697833 C225.203489,72.099862 219.393592,70.9368981 214.343729,73.0238417 C209.293867,75.1107853 206,80.0360262 206,85.5001297 C206,92.9389444 212.017618,98.9760107 219.456397,99 Z"/><path d="M246.5,99 C253.955844,99 260,92.9558441 260,85.5 C260,78.0441559 253.955844,72 246.5,72 C239.044156,72 233,78.0441559 233,85.5 C233,89.0804226 234.422317,92.5142004 236.954058,95.0459415 C239.4858,97.5776827 242.919577,99 246.5,99 L246.5,99 Z"/><path d="M272.5,99 C279.955844,99 286,92.9558441 286,85.5 C286,78.0441559 279.955844,72 272.5,72 C265.044156,72 259,78.0441559 259,85.5 C259,89.0804226 260.422317,92.5142004 262.954058,95.0459415 C265.4858,97.5776827 268.919577,99 272.5,99 Z"/><path d="M299.499838,99 C304.959984,99 309.882489,95.7108169 311.971997,90.6662995 C314.061504,85.6217821 312.906521,79.8152914 309.045615,75.954385 C305.184709,72.0934785 299.378218,70.9384957 294.3337,73.0280032 C289.289183,75.1175107 286,80.0400158 286,85.5001621 C285.988491,89.0840604 287.407065,92.5245113 289.941277,95.0587233 C292.475489,97.5929354 295.91594,99.0115094 299.499838,99 L299.499838,99 Z"/><path d="M325.957329 99C331.219094 99.0171255 335.972321 95.8607496 337.997837 91.004441 340.023353 86.1481324 338.921655 80.5497298 335.2071 76.822997 331.492545 73.0962643 325.897776 71.9762473 321.034862 73.9858559 316.171947 75.9954644 313 80.7383315 313 86.0001227 313 93.1631601 318.794327 98.9765215 325.957329 99ZM353.457012 98C358.516577 98.0172536 363.087586 94.982782 365.035816 90.3133197 366.984045 85.6438575 365.925206 80.2604582 362.353675 76.6766548 358.782143 73.0928514 353.402406 72.0155509 348.726286 73.9477497 344.050166 75.8799484 341 80.4405193 341 85.5001115 341 92.3868856 346.570276 97.9763413 353.457012 98ZM380 97C386.075132 97 391 92.0751322 391 86 391 79.9248678 386.075132 75 380 75 373.924868 75 369 79.9248678 369 86 369 92.0751322 373.924868 97 380 97ZM406.086176 94.9990655C411.04522 94.9516095 415.031377 90.9015183 414.999814 85.9424615 414.968251 80.9834047 410.930864 76.9843784 405.971619 77 401.012373 77.0157134 397.000335 81.04017 397 85.9993272 396.988292 88.4047956 397.944578 90.7139106 399.653641 92.4067352 401.362704 94.0995598 403.680874 95.0337892 406.086176 94.9990655ZM433.000082 91.9998351C436.313745 91.9998351 439 89.3135805 439 85.9999176 439 82.6862546 436.313745 80 433.000082 80 429.686419 80 427.000165 82.6862546 427.000165 85.9999176 426.988306 87.5948004 427.61663 89.1278025 428.744414 90.2555862 429.872197 91.3833698 431.4052 92.0116935 433.000082 91.9998351ZM460 87.52C460.839473 87.52 461.52 86.8394728 461.52 86 461.52 85.1605272 460.839473 84.48 460 84.48 459.160527 84.48 458.48 85.1605272 458.48 86 458.48 86.8394728 459.160527 87.52 460 87.52L460 87.52ZM32.0437146 116C32.8597535 116.001592 33.6400281 115.675046 34.1990367 115.097989 34.7580453 114.520931 35.0458544 113.744907 34.9940406 112.954408 35.0129673 111.769668 34.2897632 110.692156 33.1656391 110.230248 32.041515 109.76834 30.7410996 110.014336 29.8779345 110.852175 29.0147694 111.690014 28.761337 112.952273 29.2372078 114.043414 29.7130786 115.134555 30.8231615 115.83654 32.0437146 115.818168L32.0437146 116ZM59.001684 119C62.8450334 118.998814 65.9687258 115.899506 65.9997669 112.056546 66.030808 108.213586 62.9575884 105.06423 59.1147596 105.000968 55.2719308 104.937706 52.096699 107.984198 52.0012118 111.826097 51.9662987 113.709121 52.6870135 115.527695 54.0023928 116.875662 55.3177721 118.223629 57.1182404 118.988698 59.001684 119Z"/><ellipse cx="85.723" cy="112.5" rx="10.32" ry="10.319" transform="rotate(-22.39 85.723 112.5)"/><path d="M111.831593 123.998794C118.458038 124.091792 123.905343 118.795627 123.998782 112.169195 124.092222 105.542762 118.796415 100.09511 112.169982 100.001229 105.543549 99.9073488 100.095539 105.202788 100.001217 111.829208 99.9559141 115.011892 101.176949 118.082185 103.395643 120.364495 105.614336 122.646805 108.648896 123.954127 111.831593 123.998794L111.831593 123.998794ZM139.501145 126C146.933952 125.999369 152.968012 119.990611 153 112.557875 153.031735 105.125138 147.049411 99.0648703 139.616883 99.0005166 132.184355 98.936163 126.097992 104.891936 126.001148 112.32411 125.954097 115.93491 127.355616 119.414047 129.892475 121.983958 132.429333 124.55387 135.890038 126.000306 139.501145 126L139.501145 126Z"/><circle cx="165.5" cy="112.5" r="13.5"/><path d="M192.501145,126 C199.933952,125.999369 205.968012,119.990611 206,112.557875 C206.031735,105.125138 200.049411,99.0648703 192.616883,99.0005166 C185.184355,98.936163 179.097992,104.891936 179.001148,112.32411 C178.954097,115.93491 180.355616,119.414047 182.892475,121.983958 C185.429333,124.55387 188.890038,126.000306 192.501145,126 L192.501145,126 Z"/><path d="M219,125 C226.179702,125 232,119.179702 232,112 C232,104.820298 226.179702,99 219,99 C211.820298,99 206,104.820298 206,112 C206,119.179702 211.820298,125 219,125 Z"/><circle cx="245.5" cy="112.5" r="12.5"/><path d="M273 125C280.179702 125 286 119.179702 286 112 286 104.820298 280.179702 99 273 99 265.820298 99 260 104.820298 260 112 260 119.179702 265.820298 125 273 125L273 125ZM299 126C306.179702 126 312 120.179702 312 113 312 105.820298 306.179702 100 299 100 291.820298 100 286 105.820298 286 113 286 120.179702 291.820298 126 299 126L299 126ZM326.457707 126C333.896412 126.023235 339.95228 120.024689 339.99972 112.586101 340.047159 105.147513 334.068293 99.0722142 326.629896 99.0006381 319.191499 98.929062 313.096831 104.888183 313.001119 112.326306 312.954758 115.929203 314.350619 119.401128 316.877999 121.969272 319.40538 124.537416 322.854529 125.988645 326.457707 126L326.457707 126Z"/><circle cx="352.5" cy="112.5" r="13.5"/><path d="M380,125 C387.179702,125 393,119.179702 393,112 C393,104.820298 387.179702,99 380,99 C372.820298,99 367,104.820298 367,112 C367,119.179702 372.820298,125 380,125 L380,125 Z"/><circle cx="406.5" cy="112.5" r="11.5"/><path d="M433.5 121C438.19442 121 442 117.19442 442 112.5 442 107.80558 438.19442 104 433.5 104 428.80558 104 425 107.80558 425 112.5 425 117.19442 428.80558 121 433.5 121ZM460.002922 117C462.741732 116.998398 464.969541 114.793695 464.999691 112.055054 465.029841 109.316413 462.851109 107.063199 460.112998 107.001302 457.374886 106.939406 455.096562 109.091866 455.002927 111.829072 454.956559 113.184514 455.462802 114.500643 456.405555 115.475626 457.348309 116.450609 458.646685 117.000792 460.002922 117ZM5 139.48C5.25677102 139.460903 5.46090301 139.256771 5.48 139 5.48 138.734903 5.26509668 138.52 5 138.52 4.73490332 138.52 4.52 138.734903 4.52 139 4.52 139.265097 4.73490332 139.48 5 139.48L5 139.48ZM32.0000878 143.999836C34.0260235 143.99977 35.8516764 142.777187 36.6231475 140.903918 37.3946186 139.030648 36.9594038 136.876998 35.5210629 135.450279 34.082722 134.023559 31.9255856 133.605804 30.058595 134.392405 28.1916044 135.179007 26.9838255 137.014471 27.0001637 139.04031 27.00012 140.362674 27.5281794 141.630298 28.4670244 142.561557 29.4058694 143.492817 30.6777471 144.010587 32.0000878 143.999836L32.0000878 143.999836ZM59.456778 149C63.3069161 149.017363 66.7868607 146.709221 68.2683222 143.155471 69.7497837 139.60172 68.9397642 135.505209 66.2172775 132.782723 63.4947907 130.060236 59.3982797 129.250216 55.8445295 130.731678 52.2907793 132.213139 49.9826372 135.693084 50 139.543222 50 142.051289 50.9964243 144.456633 52.7698957 146.230104 54.5433672 148.003576 56.9487106 149 59.456778 149L59.456778 149ZM86 151C92.627417 151 98 145.627417 98 139 98 132.372583 92.627417 127 86 127 79.372583 127 74 132.372583 74 139 74 142.182598 75.2642821 145.234845 77.5147186 147.485281 79.7651552 149.735718 82.8174021 151 86 151ZM112.192007 152.996467C117.678455 153.121597 122.694659 149.913004 124.881505 144.879686 127.068351 139.846368 125.990584 133.990121 122.155077 130.065132 118.319569 126.140143 112.489714 124.927615 107.407286 126.997797 102.324858 129.06798 99.0014272 134.008839 99 139.496694 98.9980929 146.83384 104.856743 152.829171 112.192007 152.996467Z"/><path d="M139.49987,153 C144.963974,153 149.889215,149.706072 151.976158,144.656222 C154.063102,139.606373 152.900138,133.796491 149.030217,129.939022 C145.160295,126.081552 139.346685,124.937308 134.303572,127.0405 C129.260459,129.143692 125.982501,134.079504 126,139.543567 C126,143.11995 127.423732,146.549223 129.956691,149.074032 C132.48965,151.598841 135.923498,153.011467 139.49987,153 Z"/><path d="M166 152C173.179702 152 179 146.179702 179 139 179 131.820298 173.179702 126 166 126 158.820298 126 153 131.820298 153 139 153 146.179702 158.820298 152 166 152ZM193 151C199.627417 151 205 145.627417 205 139 205 132.372583 199.627417 127 193 127 186.372583 127 181 132.372583 181 139 181.023847 145.617514 186.382486 150.976153 193 151ZM218.957287 150C223.414019 150.017158 227.440713 147.343473 229.154204 143.229266 230.867696 139.115058 229.929309 134.373509 226.7779 131.2221 223.626491 128.070691 218.884942 127.132304 214.770734 128.845796 210.656527 130.559287 207.982842 134.585981 208 139.042713 208.023456 145.084502 212.915498 149.976544 218.957287 150L218.957287 150ZM246.499847 150C250.746638 150 254.575263 147.441795 256.20044 143.518271 257.825617 139.594747 256.927294 135.078576 253.924359 132.075641 250.921424 129.072706 246.405253 128.174383 242.481729 129.79956 238.558205 131.424737 236 135.253362 236 139.500153 236.023297 145.289381 240.710619 149.976703 246.499847 150ZM272.5 150C278.29899 150 283 145.29899 283 139.5 283 133.70101 278.29899 129 272.5 129 266.70101 129 262 133.70101 262 139.5 262.023112 145.28939 266.71061 149.976888 272.5 150ZM299.54356 151C305.889109 150.975881 311.015972 145.816561 311 139.470987 310.983954 133.125413 305.831123 127.992028 299.485534 128 293.139945 128.007991 288 133.154324 288 139.499918 288 142.55747 289.217559 145.48916 291.383658 147.647085 293.549757 149.80501 296.48603 151.011499 299.54356 151ZM326.45664 152C331.520173 152.017416 336.094045 148.978363 338.039864 144.303594 339.985682 139.628825 338.919003 134.241957 335.338523 130.661477 331.758043 127.080997 326.371175 126.014318 321.696406 127.960136 317.021637 129.905955 313.982584 134.479827 314 139.54336 314 146.422931 319.577069 152 326.45664 152ZM352.744985 151.997485C358.028749 152.101083 362.849374 148.995698 364.939607 144.141864 367.029841 139.28803 365.973631 133.651884 362.267737 129.884235 358.561844 126.116586 352.94391 124.96737 348.05618 126.977089 343.16845 128.986808 339.983807 133.755437 340 139.040179 340.021792 146.104858 345.681613 151.858995 352.744985 151.997485Z"/><path d="M379.49987 153C384.963974 153 389.889215 149.706072 391.976158 144.656222 394.063102 139.606373 392.900138 133.796491 389.030217 129.939022 385.160295 126.081552 379.346685 124.937308 374.303572 127.0405 369.260459 129.143692 365.982501 134.079504 366 139.543567 366 143.11995 367.423732 146.549223 369.956691 149.074032 372.48965 151.598841 375.923498 153.011467 379.49987 153L379.49987 153ZM406.71369 151.998171C413.560675 151.881102 419.038817 146.276642 419 139.428767 418.960768 132.580893 413.419107 127.039232 406.571233 127 399.723358 126.961183 394.118898 132.439325 394.001829 139.28631 393.943888 142.675135 395.264555 145.942221 397.661167 148.338833 400.057779 150.735445 403.324865 152.056112 406.71369 151.998171ZM433.5 150C439.29899 150 444 145.29899 444 139.5 444 133.70101 439.29899 129 433.5 129 427.70101 129 423 133.70101 423 139.5 423.023112 145.28939 427.71061 149.976888 433.5 150L433.5 150ZM459.5 147C463.642136 147 467 143.642136 467 139.5 467 135.357864 463.642136 132 459.5 132 455.357864 132 452 135.357864 452 139.5 452 143.642136 455.357864 147 459.5 147L459.5 147ZM486.999956 142C488.213325 142 489.307218 141.269084 489.771554 140.148077 490.23589 139.027071 489.979227 137.736736 489.121245 136.878755 488.263264 136.020773 486.972929 135.76411 485.851923 136.228446 484.730916 136.692782 484 137.786675 484 139.000044 484 140.656874 485.343126 142 486.999956 142L486.999956 142ZM5.5 168C6.88071187 168 8 166.880712 8 165.5 8 164.119288 6.88071187 163 5.5 163 4.11928813 163 3 164.119288 3 165.5 3 166.880712 4.11928813 168 5.5 168L5.5 168ZM32.5000181 173C35.5374428 172.999817 38.2749236 171.167732 39.4331313 168.359819 40.5913389 165.551905 39.9415528 162.322664 37.7874429 160.181242 35.6333331 158.039821 32.4002885 157.409103 29.5992346 158.583847 26.7981806 159.758591 24.9822635 162.506811 25 165.544158 25 167.529203 25.7916654 169.432309 27.1994498 170.831801 28.6072343 172.231293 30.5149921 173.011615 32.5000181 173L32.5000181 173ZM58.9564475 177C63.413331 177.017495 67.440336 174.343936 69.1540431 170.229653 70.8677502 166.11537 69.9294173 161.373617 66.7779002 158.2221 63.6263831 155.070583 58.8846305 154.13225 54.770347 155.845957 50.6560636 157.559664 47.9825046 161.586669 48 166.043553 48 168.94936 49.1544138 171.736154 51.2091301 173.79087 53.2638464 175.845586 56.0506398 177 58.9564475 177L58.9564475 177ZM86 179C93.1797017 179 99 173.179702 99 166 99 158.820298 93.1797017 153 86 153 78.8202983 153 73 158.820298 73 166 73 173.179702 78.8202983 179 86 179Z"/><path d="M112.456741,179 C117.924712,179.017373 122.863172,175.734661 124.963739,170.686233 C127.064306,165.637805 125.912064,159.820854 122.045605,155.954395 C118.179146,152.087936 112.362195,150.935694 107.313767,153.036261 C102.265339,155.136828 98.9826273,160.075288 99,165.543259 C99,172.975174 105.024826,179 112.456741,179 L112.456741,179 Z"/><path d="M139 179C146.179702 179 152 173.179702 152 166 152 158.820298 146.179702 153 139 153 131.820298 153 126 158.820298 126 166 126 173.179702 131.820298 179 139 179ZM165.499912 177C170.1551 177 174.351075 174.193331 176.128457 169.890823 177.905839 165.588315 176.913983 160.638662 173.616051 157.353186 170.318119 154.067709 165.364736 153.094576 161.068965 154.888206 156.773194 156.681837 153.982516 160.888379 154 165.54352 154 168.589479 155.213029 171.510055 157.370922 173.659798 159.528815 175.809541 162.453965 177.011455 165.499912 177L165.499912 177ZM191.955899 176C196.008424 176.017716 199.671007 173.587884 201.230081 169.84722 202.789156 166.106556 201.936414 161.794778 199.070818 158.929182 196.205222 156.063586 191.893444 155.210844 188.15278 156.769919 184.412116 158.328993 181.982284 161.991576 182 166.044101 182.024223 171.532515 186.467485 175.975777 191.955899 176ZM219.5 174C224.19442 174 228 170.19442 228 165.5 228 160.80558 224.19442 157 219.5 157 214.80558 157 211 160.80558 211 165.5 211 170.19442 214.80558 174 219.5 174ZM246 174C249.239485 174 252.159174 172.046234 253.394882 169.051681 254.63059 166.057129 253.938361 162.61294 251.641626 160.328357 249.344892 158.043773 245.897081 157.369824 242.909129 158.621402 239.921176 159.87298 237.982973 162.802994 238 166.042442 238.023402 170.444118 241.598258 174 246 174ZM272.5 174C275.941907 174 279.044048 171.924073 280.357016 168.742441 281.669985 165.560809 280.934578 161.90142 278.494396 159.474029 276.054213 157.046637 272.390991 156.330454 269.216275 157.660098 266.04156 158.989742 263.982097 162.102716 264 165.544565 264 167.794786 264.897024 169.952201 266.492351 171.539166 268.087679 173.126131 270.249786 174.011726 272.5 174L272.5 174ZM299 175C303.970563 175 308 170.970563 308 166 308 161.029437 303.970563 157 299 157 294.029437 157 290 161.029437 290 166 290.023346 170.960861 294.039139 174.976654 299 175L299 175ZM326.457594 176C330.712042 176.017035 334.55631 173.465126 336.192335 169.537781 337.828361 165.610435 336.932733 161.084014 333.924359 158.075641 330.915986 155.067267 326.389565 154.171639 322.462219 155.807665 318.534874 157.44369 315.982965 161.287958 316 165.542406 316.023289 171.30829 320.69171 175.976711 326.457594 176ZM352.957646 178C357.81877 178.017012 362.209956 175.09963 364.078129 170.611786 365.946302 166.123942 364.922337 160.952373 361.484982 157.515018 358.047627 154.077663 352.876058 153.053698 348.388214 154.921871 343.90037 156.790044 340.982988 161.18123 341 166.042354 341 172.646338 346.353662 178 352.957646 178ZM379.456043 179C384.92414 179.017654 389.862858 175.735047 391.963605 170.686555 394.064351 165.638064 392.912154 159.820944 389.045605 155.954395 385.179056 152.087846 379.361936 150.935649 374.313445 153.036395 369.264953 155.137142 365.982346 160.07586 366 165.543957 366 169.112702 367.41775 172.535281 369.941234 175.058766 372.464719 177.58225 375.887298 179 379.456043 179L379.456043 179Z"/><path d="M406.587447 178.999716C414.037401 178.951457 420.039957 172.877236 420 165.427233 419.959642 157.977231 413.891953 151.968072 406.441912 152 398.991871 152.032184 392.976117 158.093335 393 165.543407 393.011608 169.131442 394.451032 172.567282 397.000435 175.092094 399.549839 177.616905 402.999469 179.022959 406.587447 178.999716L406.587447 178.999716ZM432.999899 178C437.857267 178 442.235525 175.071579 444.09033 170.582301 445.945135 166.093024 444.910602 160.928356 441.469785 157.499837 438.028968 154.071319 432.860618 153.055273 428.377993 154.926123 423.895368 156.796973 420.982729 161.185667 421 166.042991 421 169.221606 422.265686 172.269411 424.51733 174.513007 426.768973 176.756603 429.821296 178.011316 432.999899 178L432.999899 178ZM459.499957 175C463.346212 175 466.812906 172.680606 468.280737 169.125465 469.748569 165.570323 468.927856 161.480918 466.201954 158.76742 463.476053 156.053922 459.382932 155.251851 455.834498 156.735857 452.286064 158.219863 449.982616 161.697071 450 165.543268 450 168.058823 451.002324 170.470721 452.785145 172.245431 454.567966 174.02014 456.984417 175.011388 459.499957 175L459.499957 175ZM485.958775 170.999829C487.98848 171.016536 489.826872 169.804509 490.611344 167.932455 491.395815 166.060401 490.970676 163.899857 489.535409 162.464591 488.100143 161.029324 485.939599 160.604185 484.067545 161.388656 482.195491 162.173128 480.983464 164.01152 481.000171 166.041225 481.000171 168.779787 483.220213 170.999829 485.958775 170.999829ZM5.5 197C7.98528137 197 10 194.985281 10 192.5 10 190.014719 7.98528137 188 5.5 188 3.01471863 188 1 190.014719 1 192.5 1 194.985281 3.01471863 197 5.5 197ZM32.5 201C37.1944204 201 41 197.19442 41 192.5 41 187.80558 37.1944204 184 32.5 184 27.8055796 184 24 187.80558 24 192.5 24 197.19442 27.8055796 201 32.5 201Z"/><circle cx="59" cy="193" r="12"/><path d="M85.5,206 C92.9558441,206 99,199.955844 99,192.5 C99,185.044156 92.9558441,179 85.5,179 C78.0441559,179 72,185.044156 72,192.5 C72,196.080423 73.4223173,199.5142 75.9540585,202.045942 C78.4857996,204.577683 81.9195774,206 85.5,206 L85.5,206 Z"/><path d="M112.149222,205.995416 C117.639035,206.138056 122.668133,202.940921 124.868569,197.909379 C127.069006,192.877836 126.002184,187.014787 122.170417,183.080843 C118.33865,179.146899 112.505694,177.926184 107.417993,179.99347 C102.330291,182.060757 99.0019377,187.003988 99,192.495648 C98.9743027,199.826 104.820723,205.828319 112.149222,205.995416 Z"/><ellipse cx="139.185" cy="192.591" rx="11.918" ry="11.917" transform="rotate(-9.27 139.185 192.591)"/><path d="M166 202C171.522847 202 176 197.522847 176 192 176 186.477153 171.522847 182 166 182 160.477153 182 156 186.477153 156 192 156 197.522847 160.477153 202 166 202ZM191.956408 200C195.195958 200.017488 198.126324 198.079582 199.378264 195.091668 200.630205 192.103755 199.956543 188.655757 197.672051 186.358784 195.38756 184.06181 191.943282 183.369368 188.948589 184.605007 185.953895 185.840645 184 188.760405 184 192 184 196.401289 187.555182 199.975961 191.956408 200ZM218.956151 199C221.79126 199.017582 224.357074 197.323393 225.454324 194.709165 226.551573 192.094936 225.963539 189.077009 223.965069 187.065972 221.966599 185.054934 218.952416 184.447991 216.331357 185.528828 213.710299 186.609665 212 189.164805 212 191.999968 212 195.848882 215.107309 198.975807 218.956151 199ZM246.458041 198.999864C249.09073 199.016849 251.473647 197.444014 252.492925 195.016561 253.512202 192.589108 252.966502 189.786534 251.110906 187.91887 249.255309 186.051206 246.456353 185.487373 244.022377 186.490927 241.588402 187.494482 240.000191 189.867192 240.000136 192.499962 239.988967 194.219975 240.664418 195.873378 241.876723 197.093567 243.089027 198.313756 244.738008 199 246.458041 198.999864ZM272.458573 198.999867C275.091216 199.016636 277.473971 197.443662 278.49308 195.016191 279.512189 192.588719 278.966356 189.786232 277.110716 187.918679 275.255075 186.051126 272.45616 185.487392 270.022249 186.490979 267.588339 187.494567 266.000186 189.867244 266.000133 192.499965 265.989107 194.220028 266.664677 195.873429 267.877067 197.093602 269.089456 198.313775 270.738491 199 272.458573 198.999867L272.458573 198.999867ZM299.5 200C303.642136 200 307 196.642136 307 192.5 307 188.357864 303.642136 185 299.5 185 295.357864 185 292 188.357864 292 192.5 292 194.489124 292.790176 196.396778 294.196699 197.803301 295.603222 199.209824 297.510876 200 299.5 200ZM326.5 201C331.19442 201 335 197.19442 335 192.5 335 187.80558 331.19442 184 326.5 184 321.80558 184 318 187.80558 318 192.5 318 197.19442 321.80558 201 326.5 201ZM353.000043 204C359.075152 204 364 199.075065 364 192.999957 364 186.924848 359.075152 182 353.000043 182 346.924935 182 342 186.924848 342 192.999957 341.988518 195.920858 343.143724 198.725466 345.209129 200.790871 347.274534 202.856276 350.079142 204.011482 353.000043 204L353.000043 204ZM380 206C387.179702 206 393 200.179702 393 193 393 185.820298 387.179702 180 380 180 372.820298 180 367 185.820298 367 193 367 200.179702 372.820298 206 380 206L380 206ZM406.413547 205.999722C411.881423 206.034662 416.830355 202.767787 418.947075 197.726125 421.063795 192.684463 419.930199 186.863869 416.076159 182.985048 412.22212 179.106227 406.408907 177.935343 401.353776 180.0197 396.298646 182.104056 393 187.031942 393 192.499926 393 199.9221 398.991518 205.952296 406.413547 205.999722L406.413547 205.999722Z"/><path d="M433 206C440.179702 206 446 200.179702 446 193 446 185.820298 440.179702 180 433 180 425.820298 180 420 185.820298 420 193 420 196.447814 421.369639 199.754415 423.807612 202.192388 426.245585 204.630361 429.552186 206 433 206L433 206ZM459.500045 203C465.29901 203 470 198.298921 470 192.499955 470 186.70099 465.29901 182 459.500045 182 453.701079 182 449 186.70099 449 192.499955 448.988591 195.288226 450.09114 197.965616 452.062762 199.937238 454.034384 201.90886 456.711774 203.011409 459.500045 203L459.500045 203ZM486.458041 198.999864C489.09073 199.016849 491.473647 197.444014 492.492925 195.016561 493.512202 192.589108 492.966502 189.786534 491.110906 187.91887 489.255309 186.051206 486.456353 185.487373 484.022377 186.490927 481.588402 187.494482 480.000191 189.867192 480.000136 192.499962 479.988967 194.219975 480.664418 195.873378 481.876723 197.093567 483.089027 198.313756 484.738008 199 486.458041 198.999864ZM513 194.38C513.757534 194.358347 514.360309 193.737843 514.36 192.98 514.36 192.228893 513.751107 191.62 513 191.62 512.248893 191.62 511.64 192.228893 511.64 192.98 511.639691 193.737843 512.242466 194.358347 513 194.38Z"/><circle cx="6" cy="219" r="5"/><circle cx="32.5" cy="219.5" r="9.5"/><path d="M59.4562663,232 C64.5158976,232.017553 69.0871353,228.983274 71.0356002,224.313837 C72.9840651,219.644399 71.9254108,214.260878 68.3539388,210.67692 C64.7824669,207.092962 59.4026715,206.015524 54.7264598,207.947678 C50.050248,209.879832 47,214.440449 47,219.500109 C47,226.386593 52.5698213,231.975929 59.4562663,232 L59.4562663,232 Z"/><ellipse cx="85.71" cy="219.335" rx="13.429" ry="13.428" transform="rotate(-22.36 85.71 219.335)"/><path d="M112 232C119.179702 232 125 226.179702 125 219 125 211.820298 119.179702 206 112 206 104.820298 206 99 211.820298 99 219 99 226.179702 104.820298 232 112 232ZM139 230C145.075132 230 150 225.075132 150 219 150 212.924868 145.075132 208 139 208 132.924868 208 128 212.924868 128 219 128 225.075132 132.924868 230 139 230L139 230ZM165.5 228C170.19442 228 174 224.19442 174 219.5 174 214.80558 170.19442 211 165.5 211 160.80558 211 157 214.80558 157 219.5 157 224.19442 160.80558 228 165.5 228Z"/><circle cx="192" cy="219" r="7"/><path d="M219.50007 225.999859C223.089882 225.999859 226 223.089742 226 219.49993 226 215.910118 223.089882 213 219.50007 213 215.910258 213 213.000141 215.910118 213.000141 219.49993 212.988739 221.227288 213.669889 222.887204 214.891342 224.108658 216.112796 225.330111 217.772712 226.011261 219.50007 225.999859L219.50007 225.999859ZM245.956691 226C248.791753 226.017366 251.357402 224.323037 252.454481 221.70879 253.55156 219.094543 252.963391 216.076704 250.964877 214.065779 248.966364 212.054854 245.952222 211.44801 243.33123 212.52888 240.710238 213.60975 239 216.164857 239 218.999971 239 222.849094 242.107638 225.976106 245.956691 226ZM273 226C276.865993 226 280 222.865993 280 219 280 215.134007 276.865993 212 273 212 269.134007 212 266 215.134007 266 219 266 222.865993 269.134007 226 273 226Z"/><circle cx="299.5" cy="219.5" r="6.5"/><path d="M326.5 227C330.642136 227 334 223.642136 334 219.5 334 215.357864 330.642136 212 326.5 212 322.357864 212 319 215.357864 319 219.5 319 223.642136 322.357864 227 326.5 227ZM353 229C358.522847 229 363 224.522847 363 219 363 213.477153 358.522847 209 353 209 347.477153 209 343 213.477153 343 219 343 224.522847 347.477153 229 353 229ZM380 231C386.627417 231 392 225.627417 392 219 392 212.372583 386.627417 207 380 207 373.372583 207 368 212.372583 368 219 368 225.627417 373.372583 231 380 231Z"/><circle cx="406.5" cy="219.5" r="13.5"/><path d="M433,232 C440.179702,232 446,226.179702 446,219 C446,211.820298 440.179702,206 433,206 C425.820298,206 420,211.820298 420,219 C420,222.447814 421.369639,225.754415 423.807612,228.192388 C426.245585,230.630361 429.552186,232 433,232 L433,232 Z"/><ellipse cx="459.845" cy="219.302" rx="11.184" ry="11.183" transform="rotate(-9.26 459.845 219.302)"/><path d="M486.45752 227C489.494741 227.017039 492.242452 225.20067 493.416655 222.399556 494.590858 219.598443 493.959701 216.365682 491.81812 214.211935 489.676539 212.058187 486.447404 211.408724 483.639681 212.567038 480.831957 213.725351 479 216.462725 479 219.5 479 223.625574 482.332001 226.976571 486.45752 227ZM513.5 222C514.880712 222 516 220.880712 516 219.5 516 218.119288 514.880712 217 513.5 217 512.119288 217 511 218.119288 511 219.5 511 220.880712 512.119288 222 513.5 222ZM5.50057807 250.999832C7.73278714 250.999564 9.74343846 249.650157 10.5894816 247.584519 11.4355247 245.518882 10.9491347 243.146765 9.35844174 241.580754 7.76774877 240.014744 5.38828998 239.565481 3.33609657 240.443684 1.28390316 241.321886-.0339423918 243.353349.000665484977 245.58526.0119289205 247.032615.597720836 248.416211 1.62916417 249.43165 2.66060751 250.447088 4.05320486 251.011184 5.50057807 250.999832L5.50057807 250.999832ZM32.0002284 256C36.0526692 256 39.7043573 253.553944 41.2469102 249.806566 42.7894631 246.059188 41.9178598 241.751335 39.0398657 238.898364 36.1618716 236.045392 31.8465748 235.211444 28.1128161 236.786667 24.3790574 238.36189 21.9651421 242.034804 22.0003807 246.087097 22.048111 251.575878 26.5112457 256.000208 32.0002284 256ZM58.5001048 258C63.5635457 258 68.1267357 254.945084 70.056363 250.263737 71.9859903 245.58239 70.9008278 240.199365 67.3081939 236.631251 63.7155599 233.063138 58.3252338 232.014869 53.6572171 233.976517 48.9892003 235.938164 45.9657305 240.522174 46.0002932 245.585501 46.0702624 252.445899 51.639394 257.977021 58.5001048 258L58.5001048 258ZM85.5000762 260C90.9680851 260 95.8959873 256.701323 97.9803273 251.646159 100.064667 246.590994 98.8937322 240.77776 95.0148537 236.923743 91.1359752 233.069726 85.3153355 231.936198 80.2736834 234.053005 75.2320313 236.169812 71.965228 241.118829 72.0002793 246.58673 72.0478567 254.00865 78.0780088 260 85.5000762 260L85.5000762 260ZM112.501795 258C119.377554 257.999012 124.961614 252.445086 125 245.569436 125.037992 238.693785 119.515972 233.078173 112.640647 233.000808 105.765323 232.923443 100.118336 238.413375 100.001798 245.288144 99.9449803 248.639903 101.236815 251.874025 103.587205 254.264252 105.937596 256.654479 109.149553 258.000481 112.501795 258ZM139.500187 256C143.754683 256 147.588575 253.432357 149.208643 249.498384 150.828711 245.564411 149.914697 241.041645 146.894109 238.045513 143.873522 235.049381 139.34348 234.172166 135.422812 235.824165 131.502144 237.476164 128.965897 241.330807 129.000347 245.585168 129.069936 251.341169 133.743816 255.977209 139.500187 256L139.500187 256ZM166.000328 254C169.243641 253.999818 172.165899 252.041421 173.399003 249.041662 174.632108 246.041903 173.932013 242.594469 171.626478 240.313328 169.320944 238.032188 165.866262 237.368805 162.879794 238.633753 159.893327 239.898701 157.96613 242.841631 158.000451 246.084767 158.046857 250.469888 161.614968 254.000246 166.000328 254L166.000328 254ZM192.50045 253C195.137048 252.999778 197.512312 251.406836 198.513226 248.967607 199.514139 246.528378 198.942388 243.726153 197.065887 241.874019 195.189386 240.021884 192.379932 239.48681 189.953998 240.519523 187.528065 241.552237 185.96631 243.948125 186.000552 246.584505 186.046748 250.141297 188.943365 253.0003 192.50045 253ZM219.000435 253C221.839492 252.999781 224.397235 251.284747 225.475393 248.658372 226.55355 246.031997 225.938558 243.014515 223.918534 241.019581 221.898509 239.024646 218.873581 238.447419 216.260892 239.558322 213.648202 240.669225 211.965276 243.248209 212.000544 246.087053 212.048149 249.918991 215.168207 253.000296 219.000435 253L219.000435 253ZM246.085099 253.999547C250.503005 253.952549 254.046374 250.333114 253.999541 245.915204 253.952708 241.497293 250.333408 237.953788 245.915498 238.000456 241.497588 238.047124 237.95395 241.666294 238.000453 246.084208 238.022786 248.205976 238.887135 250.231956 240.403327 251.716396 241.919518 253.200835 243.963334 254.022118 246.085099 253.999547L246.085099 253.999547ZM272.500388 253C275.541655 252.99967 278.28171 251.162871 279.437285 248.349717 280.592861 245.536563 279.935151 242.304063 277.772184 240.166117 275.609218 238.028171 272.369267 237.408095 269.56972 238.596295 266.770173 239.784494 264.965345 242.545703 265.000505 245.586745 265.011969 247.564336 265.808582 249.456373 267.21509 250.846612 268.621598 252.23685 270.522783 253.011404 272.500388 253L272.500388 253ZM299.500457 253C302.137105 252.999775 304.512402 251.406771 305.51328 248.967474 306.514159 246.528177 305.942304 243.725911 304.065688 241.873822 302.189072 240.021734 299.379529 239.486798 296.953616 240.519686 294.527703 241.552575 292.966093 243.94863 293.000559 246.585056 293.047054 250.141632 295.943584 253.000304 299.500457 253L299.500457 253ZM326.000403 253C328.839225 252.999794 331.396813 251.285053 332.475135 248.659 333.553457 246.032947 332.938956 243.015664 330.919477 241.020512 328.899998 239.025361 325.875493 238.447476 323.262707 239.55755 320.649921 240.667625 318.966309 243.245813 319.000512 246.084434 319.046695 249.917398 322.167167 253.000278 326.000403 253L326.000403 253ZM353.500265 255C357.350567 255 360.819993 252.675634 362.285087 249.114966 363.750181 245.554299 362.921161 241.461429 360.185953 238.751543 357.450745 236.041658 353.350345 235.250746 349.803465 236.7489 346.256584 238.247054 343.964759 241.737954 344.00041 245.588096 344.048674 250.800343 348.2878 255.000223 353.500265 255L353.500265 255ZM380.000136 258C384.861495 258 389.242465 255.06664 391.094599 250.571941 392.946732 246.077243 391.90404 240.909169 388.454063 237.484199 385.004086 234.05923 379.828553 233.054154 375.347432 234.938922 370.866311 236.823691 367.96509 241.225866 368.000317 246.087086 368.011827 249.258103 369.282562 252.29467 371.532969 254.528764 373.783376 256.762859 376.829111 258.011472 380.000136 258L380.000136 258ZM406.676169 259.9982C414.119741 259.901056 420.079909 253.796892 419.99919 246.3533 419.918471 238.909709 413.827331 232.936225 406.383404 233.000514 398.939476 233.064804 392.952422 239.142601 393.000285 246.586476 393.011567 250.185941 394.46457 253.630827 397.034518 256.151134 399.604467 258.671442 403.077083 260.057033 406.676169 259.9982Z"/><path d="M433.500085 260C438.968222 260 443.89621 256.701164 445.980464 251.645826 448.064718 246.590489 446.893522 240.777146 443.01435 236.923243 439.135179 233.06934 433.31431 231.936163 428.272707 234.053415 423.231103 236.170667 419.964665 241.120114 420.000288 246.588139 420.048637 254.009509 426.078564 260 433.500085 260L433.500085 260ZM459.500153 258C464.159239 258 468.357859 255.188575 470.132628 250.880756 471.907398 246.572937 470.90757 241.619942 467.60069 238.337923 464.293811 235.055905 459.333416 234.093485 455.039118 235.900717 450.74482 237.707948 447.965297 241.92767 448.000327 246.586628 448.047828 252.90402 453.182589 258 459.500153 258ZM486.956876 254C490.204298 254.017342 493.140059 252.069909 494.386765 249.071277 495.633471 246.072645 494.943722 242.617874 492.641132 240.327864 490.338542 238.037855 486.880045 237.367046 483.888292 238.630165 480.896539 239.893284 478.965223 242.839674 479.000475 246.086954 479.047885 250.454287 482.589352 253.976404 486.956876 254ZM513.480315 249C514.871899 249 516 247.871899 516 246.480315 515.978495 245.10413 514.856667 243.999832 513.480315 244 512.110475 244 511 245.110475 511 246.480315 510.999832 247.856667 512.10413 248.978495 513.480315 249L513.480315 249ZM6.00008782 277.999836C8.02602351 277.99977 9.85167641 276.777187 10.6231475 274.903918 11.3946186 273.030648 10.9594038 270.876998 9.52106293 269.450279 8.08272204 268.023559 5.92558564 267.605804 4.05859504 268.392405 2.19160444 269.179007.983825527 271.014471 1.00016372 273.04031 1.00012001 274.362674 1.52817945 275.630298 2.46702442 276.561557 3.4058694 277.492817 4.67774713 278.010587 6.00008782 277.999836L6.00008782 277.999836Z"/><circle cx="32" cy="273" r="10"/><path d="M58.4570121 286C63.5165767 286.017254 68.0875861 282.982782 70.0358158 278.31332 71.9840454 273.643857 70.9252061 268.260458 67.3536746 264.676655 63.7821431 261.092851 58.4024057 260.015551 53.7262856 261.94775 49.0501655 263.879948 46 268.440519 46 273.500112 46 280.386886 51.5702756 285.976341 58.4570121 286L58.4570121 286ZM85.5 286C92.9558441 286 99 279.955844 99 272.5 99 265.044156 92.9558441 259 85.5 259 78.0441559 259 72 265.044156 72 272.5 72 279.955844 78.0441559 286 85.5 286ZM112 286C119.179702 286 125 280.179702 125 273 125 265.820298 119.179702 260 112 260 104.820298 260 99 265.820298 99 273 99 280.179702 104.820298 286 112 286ZM139.5 284C145.29899 284 150 279.29899 150 273.5 150 267.70101 145.29899 263 139.5 263 133.70101 263 129 267.70101 129 273.5 129.023112 279.28939 133.71061 283.976888 139.5 284Z"/><circle cx="165.874" cy="272.8" r="8.204" transform="rotate(-9.25 165.874 272.8)"/><path d="M192.666657 278.99786C196.233373 278.906376 199.059646 275.956973 198.999043 272.389595 198.938441 268.822218 196.013619 265.970514 192.445854 266.00023 188.878089 266.029946 186.001173 268.929972 186 272.497864 185.999424 274.251039 186.707073 275.930107 187.962346 277.153999 189.217619 278.377891 190.91406 279.042813 192.666657 278.99786ZM219 280C222.865993 280 226 276.865993 226 273 226 269.134007 222.865993 266 219 266 215.134007 266 212 269.134007 212 273 212 276.865993 215.134007 280 219 280Z"/><circle cx="245.5" cy="273.5" r="7.5"/><path d="M273 280C276.865993 280 280 276.865993 280 273 280 269.134007 276.865993 266 273 266 269.134007 266 266 269.134007 266 273 266 276.865993 269.134007 280 273 280ZM299.5 279C303.089851 279 306 276.089851 306 272.5 306 268.910149 303.089851 266 299.5 266 295.910149 266 293 268.910149 293 272.5 293 276.089851 295.910149 279 299.5 279ZM326.455776 281C329.49315 281.017737 332.241394 279.201819 333.416148 276.400765 334.590902 273.599711 333.960179 270.366667 331.818739 268.212557 329.677298 266.058447 326.448029 265.408661 323.640091 266.566869 320.832153 267.725076 319 270.462557 319 273.499982 319 277.624888 322.330939 280.975605 326.455776 281ZM352.456778 282C356.306916 282.017363 359.786861 279.709221 361.268322 276.155471 362.749784 272.60172 361.939764 268.505209 359.217277 265.782723 356.494791 263.060236 352.39828 262.250216 348.844529 263.731678 345.290779 265.213139 342.982637 268.693084 343 272.543222 343 277.766002 347.233998 282 352.456778 282L352.456778 282ZM380 285C386.627417 285 392 279.627417 392 273 392 266.372583 386.627417 261 380 261 373.372583 261 368 266.372583 368 273 368 279.627417 373.372583 285 380 285Z"/><circle cx="406.5" cy="272.5" r="13.5"/><path d="M433.002303,285.997448 C438.283205,285.996432 443.038727,282.80115 445.034993,277.912562 C447.03126,273.023975 445.871532,267.413645 442.100583,263.716989 C438.329635,260.020333 432.696908,258.972027 427.848339,261.064507 C422.99977,263.156986 419.898969,267.974389 420.002516,273.253773 C420.001831,276.678232 421.379526,279.958868 423.825072,282.356234 C426.270619,284.7536 429.578202,286.065937 433.002303,285.997448 L433.002303,285.997448 Z"/><circle cx="459.5" cy="272.5" r="11.5"/><path d="M487 281C491.418278 281 495 277.418278 495 273 495 268.581722 491.418278 265 487 265 482.581722 265 479 268.581722 479 273 479.024288 277.408178 482.591822 280.975712 487 281L487 281ZM513.499963 276C514.511104 276 515.422682 275.390903 515.809629 274.456731 516.196575 273.522559 515.982689 272.44728 515.267705 271.732295 514.55272 271.017311 513.477441 270.803425 512.543269 271.190371 511.609097 271.577318 511 272.488896 511 273.500037 511 274.880728 512.119272 276 513.499963 276L513.499963 276ZM6.00012441 303.999799C8.0264499 303.999718 9.85236427 302.776662 10.6235687 300.902868 11.3947731 299.029073 10.9587548 296.875101 9.51951553 295.448739 8.08027627 294.022377 5.92243906 293.605702 4.05560096 294.393666 2.18876286 295.18163.982108484 297.018405 1.00020067 299.044611 1.00014702 300.36658 1.52834348 301.633764 2.46731672 302.564336 3.40628997 303.494908 4.67818423 304.011708 6.00012441 303.999799L6.00012441 303.999799ZM32.4999599 309C36.346269 309 39.8129996 306.680537 41.2807951 303.125323 42.7485907 299.570109 41.927767 295.480658 39.2017418 292.767208 36.4757167 290.053758 32.3824986 289.251836 28.8340848 290.73603 25.285671 292.220224 22.9823767 295.697614 23 299.543864 23 302.059363 24.0023446 304.471201 25.7851833 306.245816 27.568022 308.02043 29.984475 309.011544 32.4999599 309ZM58.9573475 311C63.818525 311.017132 68.209822 308.099795 70.0780719 303.611924 71.9463217 299.124053 70.9223751 293.952411 67.484982 290.515018 64.0475889 287.077625 58.875947 286.053678 54.3880761 287.921928 49.9002052 289.790178 46.9828678 294.181475 47 299.042653 47 305.646471 52.3535286 311 58.9573475 311Z"/><ellipse cx="85.729" cy="299.529" rx="13.429" ry="13.428" transform="rotate(-22.36 85.729 299.53)"/><path d="M112 312C119.179702 312 125 306.179702 125 299 125 291.820298 119.179702 286 112 286 104.820298 286 99 291.820298 99 299 99 306.179702 104.820298 312 112 312ZM139.499912 311C144.1551 311 148.351075 308.193331 150.128457 303.890823 151.905839 299.588315 150.913983 294.638662 147.616051 291.353186 144.318119 288.067709 139.364736 287.094576 135.068965 288.888206 130.773194 290.681837 127.982516 294.888379 128 299.54352 128 302.589479 129.213029 305.510055 131.370922 307.659798 133.528815 309.809541 136.453965 311.011455 139.499912 311ZM166 308C170.970563 308 175 303.970563 175 299 175 294.029437 170.970563 290 166 290 161.029437 290 157 294.029437 157 299 157.023346 303.960861 161.039139 307.976654 166 308L166 308ZM192.455776 307C195.49315 307.017737 198.241394 305.201819 199.416148 302.400765 200.590902 299.599711 199.960179 296.366667 197.818739 294.212557 195.677298 292.058447 192.448029 291.408661 189.640091 292.566869 186.832153 293.725076 185 296.462557 185 299.499982 185 303.624888 188.330939 306.975605 192.455776 307ZM219.458105 305.999865C222.094626 306.01682 224.480204 304.439418 225.497005 302.006797 226.513806 299.574175 225.960373 296.768309 224.096032 294.903968 222.231691 293.039627 219.425825 292.486194 216.993203 293.502995 214.560582 294.519796 212.98318 296.905374 213.000135 299.541895 213.023011 303.099014 215.900986 305.976989 219.458105 305.999865L219.458105 305.999865ZM246.500042 306C249.132861 306 251.505604 304.411656 252.509126 301.977588 253.512647 299.543519 252.948712 296.744491 251.080934 294.88892 249.213156 293.033348 246.410493 292.487779 243.983059 293.50724 241.555625 294.526702 239.982932 296.909811 240.00014 299.542576 240.023495 303.115774 242.926771 306 246.500042 306L246.500042 306ZM272.500042 306C275.132861 306 277.505604 304.411656 278.509126 301.977588 279.512647 299.543519 278.948712 296.744491 277.080934 294.88892 275.213156 293.033348 272.410493 292.487779 269.983059 293.50724 267.555625 294.526702 265.982932 296.909811 266.00014 299.542576 266.023495 303.115774 268.926771 306 272.500042 306ZM299.552966 306.978048C303.193104 306.689597 306 303.651509 306 300 306 296.348491 303.193104 293.310403 299.552966 293.021952 296.928019 292.813946 294.408407 294.096601 293.032175 296.34148 291.655942 298.58636 291.655942 301.41364 293.032175 303.65852 294.408407 305.903399 296.928019 307.186054 299.552966 306.978048L299.552966 306.978048ZM325.957667 307C329.200958 307.017003 332.133635 305.074196 333.382708 302.08103 334.631781 299.087864 333.950039 295.63673 331.656655 293.343345 329.36327 291.049961 325.912136 290.368219 322.91897 291.617292 319.925804 292.866365 317.982997 295.799042 318 299.042333 318 303.437169 321.562831 307 325.957667 307ZM352.456369 310C356.711038 310.017527 360.55576 307.465802 362.1921 303.538346 363.82844 299.61089 362.932891 295.084172 359.924359 292.075641 356.915828 289.067109 352.38911 288.17156 348.461654 289.8079 344.534198 291.44424 341.982473 295.288962 342 299.543631 342 305.318474 346.681526 310 352.456369 310ZM379.629827 311.998797C386.521656 311.927213 392.055135 306.290826 391.999585 299.398993 391.944036 292.50716 386.320421 286.960697 379.428334 287 372.536246 287.039722 366.976597 292.650298 367 299.542315 367 302.876175 368.335878 306.071033 370.709524 308.412114 373.08317 310.753195 376.296219 312.0451 379.629827 311.998797Z"/><circle cx="406.5" cy="299.5" r="13.5"/><path d="M433 312C440.179702 312 446 306.179702 446 299 446 291.820298 440.179702 286 433 286 425.820298 286 420 291.820298 420 299 420 302.447814 421.369639 305.754415 423.807612 308.192388 426.245585 310.630361 429.552186 312 433 312L433 312ZM459.826017 309.998617C464.29414 310.069235 468.360941 307.42973 470.115912 303.320092 471.870883 299.210453 470.965205 294.447518 467.824348 291.268825 464.683491 288.090132 459.931735 287.127481 455.801367 288.833108 451.671 290.538734 448.982976 294.573627 449 299.042268 448.999656 305.042719 453.82598 309.927183 459.826017 309.998617ZM486.001024 306C488.843559 305.999409 491.403566 304.280026 492.479233 301.648895 493.5549 299.017765 492.932609 295.997403 490.904499 294.00574 488.87639 292.014077 485.845224 291.446638 483.234004 292.569811 480.622785 293.692984 478.950074 296.283718 479.001137 299.125775 479.04717 302.95214 482.174426 306.023197 486.001024 306L486.001024 306ZM513 301.72C513.94993 301.72 514.72 300.94993 514.72 300 514.72 299.05007 513.94993 298.28 513 298.28 512.05007 298.28 511.28 299.05007 511.28 300 511.28 300.94993 512.05007 301.72 513 301.72ZM5.50013694 329.999726C7.43305793 329.999726 9 328.432784 9 326.499863 9 324.566942 7.43305793 323 5.50013694 323 3.56721594 323 2.00027388 324.566942 2.00027388 326.499863 1.98855216 327.431628 2.3535214 328.328659 3.01243116 328.987569 3.67134091 329.646479 4.56837155 330.011448 5.50013694 329.999726L5.50013694 329.999726Z"/><circle cx="32" cy="326" r="8"/><path d="M59.5 338C65.8512746 338 71 332.851275 71 326.5 71 320.148725 65.8512746 315 59.5 315 53.1487254 315 48 320.148725 48 326.5 48 332.851275 53.1487254 338 59.5 338ZM85.9573293 339C91.2190944 339.017125 95.9723206 335.86075 97.997837 331.004441 100.023353 326.148132 98.9216554 320.54973 95.2071001 316.822997 91.4925448 313.096264 85.8977762 311.976247 81.0348616 313.985856 76.171947 315.995464 73 320.738331 73 326.000123 73 333.16316 78.7943274 338.976521 85.9573293 339L85.9573293 339Z"/><path d="M112.5 340C119.955844 340 126 333.955844 126 326.5 126 319.044156 119.955844 313 112.5 313 105.044156 313 99 319.044156 99 326.5 99 333.955844 105.044156 340 112.5 340ZM139.500038 339C146.403576 339 152 333.403501 152 326.499962 152 319.596424 146.403576 314 139.500038 314 132.596499 314 127 319.596424 127 326.499962 126.988532 329.818684 128.301781 333.004809 130.648486 335.351514 132.995191 337.698219 136.181316 339.011468 139.500038 339L139.500038 339ZM165.499847 336C169.746638 336 173.575263 333.441795 175.20044 329.518271 176.825617 325.594747 175.927294 321.078576 172.924359 318.075641 169.921424 315.072706 165.405253 314.174383 161.481729 315.79956 157.558205 317.424737 155 321.253362 155 325.500153 155 331.299059 159.700941 336 165.499847 336Z"/><circle cx="192" cy="326" r="9"/><path d="M219.67142 333.998038C223.78992 333.903876 227.06154 330.505469 226.999122 326.386363 226.936703 322.267257 223.563612 318.96954 219.44415 319.000212 215.324688 319.030884 212.001077 322.378463 212 326.498041 211.999473 328.517226 212.813137 330.451326 214.256956 331.862881 215.700774 333.274437 217.652765 334.044191 219.67142 333.998038ZM245.958048 333C248.79297 333.01685 251.358201 331.322185 252.454862 328.707894 253.551522 326.093602 252.963036 323.075973 250.964437 321.065317 248.965837 319.054661 245.951822 318.448057 243.331013 319.529006 240.710204 320.609955 239.000177 323.164982 239 325.999979 238.988966 327.852601 239.717101 329.633178 241.023176 330.947132 242.329251 332.261086 244.105407 333 245.958048 333L245.958048 333ZM272.5 334C276.642136 334 280 330.642136 280 326.5 280 322.357864 276.642136 319 272.5 319 268.357864 319 265 322.357864 265 326.5 265 328.489124 265.790176 330.396778 267.196699 331.803301 268.603222 333.209824 270.510876 334 272.5 334L272.5 334ZM299.000057 334C303.418303 334 307 330.41819 307 325.999943 307 321.581697 303.418303 318 299.000057 318 294.58181 318 291 321.581697 291 325.999943 290.988779 328.125115 291.827987 330.166524 293.330732 331.669268 294.833476 333.172013 296.874885 334.011221 299.000057 334L299.000057 334ZM325.955853 336C330.004359 336.017737 333.66415 333.592692 335.225819 329.857451 336.787489 326.12221 335.942856 321.813891 333.086429 318.944812 330.230002 316.075734 325.925472 315.212084 322.183389 316.757254 318.441306 318.302424 316 321.951489 316 326.000051 315.98838 328.648118 317.032112 331.191746 318.90045 333.068359 320.768788 334.944972 323.307772 336 325.955853 336ZM352.627774 337.999289C358.961936 337.928905 364.046472 332.749432 363.99968 326.415051 363.952887 320.080669 358.792387 314.976878 352.457877 315 346.123366 315.02328 341.000391 320.164736 341 326.49929 341 329.571548 342.228938 332.51615 344.413321 334.676529 346.597704 336.836908 349.555707 338.033425 352.627774 337.999289ZM380 339C387.179702 339 393 333.179702 393 326 393 318.820298 387.179702 313 380 313 372.820298 313 367 318.820298 367 326 367 333.179702 372.820298 339 380 339L380 339Z"/><circle cx="406.5" cy="326.5" r="13.5"/><path d="M433.5 339C440.403559 339 446 333.403559 446 326.5 446 319.596441 440.403559 314 433.5 314 426.596441 314 421 319.596441 421 326.5 421 333.403559 426.596441 339 433.5 339ZM460.000048 336C465.522869 336 470 331.522773 470 325.999952 470 320.477131 465.522869 316 460.000048 316 454.477227 316 450 320.477131 450 325.999952 449.988473 328.65565 451.038304 331.205936 452.916184 333.083816 454.794064 334.961696 457.34435 336.011527 460.000048 336L460.000048 336ZM486.955798 331.999837C489.386472 332.01771 491.587762 330.567265 492.530351 328.326727 493.47294 326.086189 492.97056 323.498319 491.258121 321.773197 489.545683 320.048076 486.961588 319.526611 484.714153 320.452638 482.466717 321.378666 481 323.56919 481 325.999927 481 329.296433 483.659378 331.975598 486.955798 331.999837ZM512.999411 326.699999C513.186908 326.700324 513.366218 326.623217 513.494958 326.486905 513.623697 326.350592 513.690441 326.167172 513.679411 325.979999 513.679411 325.604446 513.374965 325.299999 512.999411 325.299999 512.632408 325.31988 512.339292 325.612996 512.319411 325.979999 512.31882 326.362533 512.617468 326.678748 512.999411 326.699999L512.999411 326.699999ZM5.01971383 354.500286C5.419264 354.500432 5.80189895 354.339025 6.08063183 354.052759 6.35936471 353.766493 6.51051251 353.37969 6.49971383 352.980286 6.51087083 352.584451 6.35852827 352.20149 6.07851926 351.921481 5.79851024 351.641472 5.41554917 351.489129 5.01971383 351.500286 4.62030959 351.489487 4.23350724 351.640635 3.94724104 351.919368 3.66097484 352.198101 3.49956788 352.580736 3.49971383 352.980286 3.49971383 353.819759 4.18024101 354.500286 5.01971383 354.500286L5.01971383 354.500286ZM32.4999803 359.999849C35.128916 359.999849 37.4989898 358.416217 38.5050399 355.987397 39.5110901 353.558577 38.9549922 350.762884 37.096054 348.903946 35.2371157 347.045008 32.4414231 346.48891 30.0126032 347.49496 27.5837833 348.50101 26.0001506 350.871084 26.0001506 353.50002 25.9883587 355.22747 26.669373 356.887587 27.890893 358.109107 29.1124131 359.330627 30.7725303 360.011641 32.4999803 359.999849ZM58.4559166 364C62.7066617 364.017693 66.5487503 361.470796 68.1877787 357.548714 69.8268072 353.626633 68.9393611 349.103276 65.9399121 346.091226 62.940463 343.079176 58.4208646 342.172772 54.4919437 343.795341 50.5630228 345.417909 48 349.249283 48 353.500064 48 359.281854 52.6741741 363.975716 58.4559166 364ZM85.5 366C92.4035594 366 98 360.403559 98 353.5 98 346.596441 92.4035594 341 85.5 341 78.5964406 341 73 346.596441 73 353.5 73 360.403559 78.5964406 366 85.5 366ZM112.5 366C119.955844 366 126 359.955844 126 352.5 126 345.044156 119.955844 339 112.5 339 105.044156 339 99 345.044156 99 352.5 99 359.955844 105.044156 366 112.5 366ZM139 366C146.179702 366 152 360.179702 152 353 152 345.820298 146.179702 340 139 340 131.820298 340 126 345.820298 126 353 126 360.179702 131.820298 366 139 366ZM166.042402 365C172.664249 364.976526 178.015552 359.593626 178 352.971756 177.984381 346.349887 172.607799 340.992236 165.985915 341 159.364032 341.007781 154 346.378037 154 352.999925 154 356.189883 155.270081 359.248574 157.529697 361.500233 159.789313 363.751893 162.852464 365.011197 166.042402 365L166.042402 365ZM193.000043 364C199.075152 364 204 359.075065 204 352.999957 204 346.924848 199.075152 342 193.000043 342 186.924935 342 182 346.924848 182 352.999957 181.988518 355.920858 183.143724 358.725466 185.209129 360.790871 187.274534 362.856276 190.079142 364.011482 193.000043 364L193.000043 364ZM218.956189 363C223.00468 363.017583 226.664371 360.592439 228.225927 356.857185 229.787483 353.121931 228.94275 348.813674 226.086278 345.944675 223.229806 343.075676 218.925285 342.212098 215.183231 343.757291 211.441177 345.302484 209 348.951525 209 353.000053 209 358.50581 213.450482 362.975861 218.956189 363L218.956189 363ZM246.5 363C251.746705 363 256 358.746705 256 353.5 256 348.253295 251.746705 344 246.5 344 241.253295 344 237 348.253295 237 353.5 237 358.746705 241.253295 363 246.5 363ZM272.50005 362C277.746727 362 282 357.746628 282 352.49995 282 347.253273 277.746727 343 272.50005 343 267.253372 343 263 347.253273 263 352.49995 262.988552 355.023016 263.985728 357.446081 265.769824 359.230176 267.553919 361.014272 269.976984 362.011448 272.50005 362L272.50005 362ZM299.28202 362.997725C303.547525 363.08624 307.442503 360.584923 309.136541 356.669247 310.830578 352.753572 309.986824 348.202151 307.001794 345.153888 304.016763 342.105625 299.484016 341.166652 295.533678 342.778231 291.58334 344.389811 289.000919 348.231488 289 352.497898 288.99877 358.212776 293.568355 362.879159 299.28202 362.997725ZM326.457242 365C331.112328 365.017162 335.318639 362.226276 337.112023 357.930478 338.905406 353.63468 337.93207 348.681429 334.646518 345.383663 331.360965 342.085898 326.411357 341.09419 322.108932 342.87162 317.806507 344.649051 315 348.844975 315 353.500091 315 359.834676 320.122699 364.976459 326.457242 365ZM353 366C360.179702 366 366 360.179702 366 353 366 345.820298 360.179702 340 353 340 345.820298 340 340 345.820298 340 353 340 360.179702 345.820298 366 353 366L353 366ZM379.5 366C386.955844 366 393 359.955844 393 352.5 393 345.044156 386.955844 339 379.5 339 372.044156 339 366 345.044156 366 352.5 366 359.955844 372.044156 366 379.5 366ZM406 366C413.179702 366 419 360.179702 419 353 419 345.820298 413.179702 340 406 340 398.820298 340 393 345.820298 393 353 393 360.179702 398.820298 366 406 366L406 366ZM433.50004 365C439.851293 365 445 359.851212 445 353.49996 445 347.148707 439.851293 342 433.50004 342 427.148788 342 422 347.148707 422 353.49996 421.988623 356.553437 423.196543 359.485158 425.355692 361.644308 427.514842 363.803457 430.446563 365.011377 433.50004 365L433.50004 365ZM459.5 361C464.19442 361 468 357.19442 468 352.5 468 347.80558 464.19442 344 459.5 344 454.80558 344 451 347.80558 451 352.5 451 357.19442 454.80558 361 459.5 361ZM486.5 357C488.985281 357 491 354.985281 491 352.5 491 350.014719 488.985281 348 486.5 348 484.014719 348 482 350.014719 482 352.5 482 354.985281 484.014719 357 486.5 357ZM32.5 384C34.9852814 384 37 381.985281 37 379.5 37 377.014719 34.9852814 375 32.5 375 30.0147186 375 28 377.014719 28 379.5 28 381.985281 30.0147186 384 32.5 384Z"/><circle cx="59" cy="380" r="8"/><path d="M86 391C92.0751322 391 97 386.075132 97 380 97 373.924868 92.0751322 369 86 369 79.9248678 369 75 373.924868 75 380 75 386.075132 79.9248678 391 86 391ZM112 393C119.179702 393 125 387.179702 125 380 125 372.820298 119.179702 367 112 367 104.820298 367 99 372.820298 99 380 99 387.179702 104.820298 393 112 393ZM139.500035 393C146.95586 393 153 386.95579 153 379.499965 153 372.04414 146.95586 366 139.500035 366 132.04421 366 126 372.04414 126 379.499965 125.98849 383.083916 127.407085 386.524417 129.941334 389.058666 132.475583 391.592915 135.916084 393.01151 139.500035 393Z"/><path d="M165.543974 393C172.994045 392.975661 179.016133 386.920801 179 379.470708 178.983802 372.020614 172.935496 365.991945 165.485389 366 158.035283 366.008071 152 372.049817 152 379.499928 152 383.087983 153.428333 386.528442 155.969593 389.061451 158.510853 391.59446 161.955938 393.011616 165.543974 393L165.543974 393ZM193 393C200.179702 393 206 387.179702 206 380 206 372.820298 200.179702 367 193 367 185.820298 367 180 372.820298 180 380 180 387.179702 185.820298 393 193 393Z"/><circle cx="219" cy="380" r="12"/><circle cx="246" cy="380" r="12"/><path d="M273 392C279.627417 392 285 386.627417 285 380 285 373.372583 279.627417 368 273 368 266.372583 368 261 373.372583 261 380 261 383.182598 262.264282 386.234845 264.514719 388.485281 266.765155 390.735718 269.817402 392 273 392L273 392ZM299.543402 392C306.441261 391.975973 312.015919 386.368972 312 379.47109 311.984012 372.573208 306.383478 366.992053 299.485582 367 292.587687 367.007964 287 372.602024 287 379.499925 287 382.822665 288.322897 386.008684 290.676497 388.35414 293.030097 390.699596 296.220683 392.011462 299.543402 392ZM326 393C333.179702 393 339 387.179702 339 380 339 372.820298 333.179702 367 326 367 318.820298 367 313 372.820298 313 380 313 387.179702 318.820298 393 326 393L326 393Z"/><circle cx="352.5" cy="379.5" r="13.5"/><path d="M379.500036 393C386.95586 393 393 386.955788 393 379.499964 393 372.04414 386.95586 366 379.500036 366 372.044212 366 366 372.04414 366 379.499964 365.988341 383.083961 367.406886 386.52455 369.941168 389.058832 372.47545 391.593114 375.916039 393.011659 379.500036 393ZM406.999863 392C411.853323 392 416.228881 389.07627 418.08622 384.592257 419.943559 380.108244 418.916908 374.946922 415.484993 371.515007 412.053078 368.083092 406.891756 367.056441 402.407743 368.91378 397.92373 370.771119 395 375.146677 395 380.000137 394.988718 383.186147 396.249329 386.244944 398.502193 388.497807 400.755056 390.750671 403.813853 392.011282 406.999863 392L406.999863 392ZM433.087717 389.999615C438.598886 389.951269 443.031986 385.452936 443 379.941648 442.967666 374.430361 438.482372 369.984069 432.971015 370 427.459657 370.016017 423.000212 374.488234 423 379.999615 423 382.667049 424.065498 385.223972 425.959877 387.101878 427.854255 388.979784 430.420387 390.023013 433.087717 389.999615ZM460.208318 385.996378C463.492474 385.882275 466.073805 383.147579 465.998389 379.862302 465.922972 376.577025 463.218871 373.963662 459.932939 374.000382 456.647007 374.037102 454.001983 376.710242 454 379.996384 453.999019 381.624444 454.659676 383.183007 455.830362 384.31441 457.001047 385.445812 458.581243 386.052908 460.208318 385.996378L460.208318 385.996378ZM487 381.52C487.839473 381.52 488.52 380.839473 488.52 380 488.52 379.160527 487.839473 378.48 487 378.48 486.160527 378.48 485.48 379.160527 485.48 380 485.48 380.839473 486.160527 381.52 487 381.52L487 381.52Z"/><circle cx="32" cy="407" r="1"/><path d="M58.4572869 411.999834C60.6855962 412.017108 62.7041154 410.688104 63.5688486 408.634354 64.4335818 406.580604 63.9736139 404.208033 62.404057 402.626216 60.8345001 401.044398 58.4655781 400.565981 56.405159 401.414705 54.3447399 402.263429 53 404.271543 53 406.499917 53 409.520865 55.4364271 411.976415 58.4572869 411.999834L58.4572869 411.999834ZM86.0000521 415C90.9705861 415 95 410.970482 95 405.999948 95 401.029414 90.9705861 397 86.0000521 397 81.0295181 397 77 401.029414 77 405.999948 76.9885837 408.390396 77.9330899 410.686267 79.6234113 412.376589 81.3137327 414.06691 83.6096044 415.011416 86.0000521 415L86.0000521 415ZM112.5 418C118.851275 418 124 412.851275 124 406.5 124 400.148725 118.851275 395 112.5 395 106.148725 395 101 400.148725 101 406.5 101 412.851275 106.148725 418 112.5 418ZM138.784093 418.998182C144.060484 419.08614 148.866441 415.975219 150.946864 411.125158 153.027286 406.275097 151.969269 400.648494 148.269267 396.885523 144.569265 393.122552 138.961622 391.970054 134.077615 393.968817 129.193607 395.96758 126.002572 400.720906 126.001839 405.998391 125.943738 409.42607 127.264743 412.733448 129.668207 415.177816 132.071671 417.622184 135.356156 418.998675 138.784093 418.998182L138.784093 418.998182Z"/><path d="M165.5 420C172.955844 420 179 413.955844 179 406.5 179 399.044156 172.955844 393 165.5 393 158.044156 393 152 399.044156 152 406.5 152 413.955844 158.044156 420 165.5 420ZM192.499803 420C197.959963 420 202.882481 416.710879 204.971994 411.666348 207.061507 406.621818 205.906521 400.815312 202.045605 396.954395 198.184688 393.093479 192.378182 391.938493 187.333652 394.028006 182.289121 396.117519 179 401.040037 179 406.500197 179.023751 413.946072 185.053928 419.976249 192.499803 420L192.499803 420Z"/><path d="M219.456465,420 C224.924486,420.017484 229.863048,416.734814 231.963686,411.686361 C234.064324,406.637908 232.912099,400.82089 229.045605,396.954395 C225.17911,393.087901 219.362092,391.935676 214.313639,394.036314 C209.265186,396.136952 205.982516,401.075514 206,406.543535 C206,413.975297 212.024703,420 219.456465,420 Z"/><circle cx="246.5" cy="406.5" r="13.5"/><path d="M272.5,420 C279.955844,420 286,413.955844 286,406.5 C286,399.044156 279.955844,393 272.5,393 C265.044156,393 259,399.044156 259,406.5 C259.023981,413.945888 265.054112,419.976019 272.5,420 L272.5,420 Z"/><path d="M299.49987,420 C304.963974,420 309.889215,416.706072 311.976158,411.656222 C314.063102,406.606373 312.900138,400.796491 309.030217,396.939022 C305.160295,393.081552 299.346685,391.937308 294.303572,394.0405 C289.260459,396.143692 285.982501,401.079504 286,406.543567 C286,410.11995 287.423732,413.549223 289.956691,416.074032 C292.48965,418.598841 295.923498,420.011467 299.49987,420 Z"/><path d="M326.456465,420 C331.924486,420.017484 336.863048,416.734814 338.963686,411.686361 C341.064324,406.637908 339.912099,400.82089 336.045605,396.954395 C332.17911,393.087901 326.362092,391.935676 321.313639,394.036314 C316.265186,396.136952 312.982516,401.075514 313,406.543535 C313,413.975297 319.024703,420 326.456465,420 Z"/><path d="M353 419C360.179702 419 366 413.179702 366 406 366 398.820298 360.179702 393 353 393 345.820298 393 340 398.820298 340 406 340 413.179702 345.820298 419 353 419L353 419ZM379.957347 419C384.818525 419.017132 389.209822 416.099795 391.078072 411.611924 392.946322 407.124053 391.922375 401.952411 388.484982 398.515018 385.047589 395.077625 379.875947 394.053678 375.388076 395.921928 370.900205 397.790178 367.982868 402.181475 368 407.042653 368 413.646471 373.353529 419 379.957347 419L379.957347 419Z"/><circle cx="406.5" cy="406.5" r="10.5"/><path d="M433.5 414C437.642136 414 441 410.642136 441 406.5 441 402.357864 437.642136 399 433.5 399 429.357864 399 426 402.357864 426 406.5 426 410.642136 429.357864 414 433.5 414ZM459.5 410C461.432997 410 463 408.432997 463 406.5 463 404.567003 461.432997 403 459.5 403 457.567003 403 456 404.567003 456 406.5 456 408.432997 457.567003 410 459.5 410L459.5 410ZM59 434.72C59.9499298 434.72 60.72 433.94993 60.72 433 60.72 432.05007 59.9499298 431.28 59 431.28 58.0500702 431.28 57.28 432.05007 57.28 433 57.3011547 433.941028 58.058972 434.698845 59 434.72L59 434.72ZM85.9559569 438.999838C88.3906317 439.017675 90.5946924 437.562422 91.5346606 435.316444 92.4746289 433.070465 91.9641124 430.47913 90.2424911 428.757509 88.5208698 427.035888 85.9295348 426.525371 83.6835563 427.465339 81.4375778 428.405308 79.982325 430.609368 80.0001621 433.044043 80.0001621 436.333338 82.6666623 438.999838 85.9559569 438.999838ZM112.5 442C117.19442 442 121 438.19442 121 433.5 121 428.80558 117.19442 425 112.5 425 107.80558 425 104 428.80558 104 433.5 104 438.19442 107.80558 442 112.5 442ZM139.5 444C145.29899 444 150 439.29899 150 433.5 150 427.70101 145.29899 423 139.5 423 133.70101 423 129 427.70101 129 433.5 129.023112 439.28939 133.71061 443.976888 139.5 444L139.5 444ZM165.999899 445C170.857267 445 175.235525 442.071579 177.09033 437.582301 178.945135 433.093024 177.910602 427.928356 174.469785 424.499837 171.028968 421.071319 165.860618 420.055273 161.377993 421.926123 156.895368 423.796973 153.982729 428.185667 154 433.042991 154 436.221606 155.265686 439.269411 157.51733 441.513007 159.768973 443.756603 162.821296 445.011316 165.999899 445L165.999899 445ZM193 446C200.179702 446 206 440.179702 206 433 206 425.820298 200.179702 420 193 420 185.820298 420 180 425.820298 180 433 180 440.179702 185.820298 446 193 446ZM219 446C226.179702 446 232 440.179702 232 433 232 425.820298 226.179702 420 219 420 211.820298 420 206 425.820298 206 433 206 440.179702 211.820298 446 219 446L219 446Z"/><circle cx="246.5" cy="433.5" r="13.5"/><path d="M273.002303,445.997448 C278.283205,445.996432 283.038727,442.80115 285.034993,437.912562 C287.03126,433.023975 285.871532,427.413645 282.100583,423.716989 C278.329635,420.020333 272.696908,418.972027 267.848339,421.064507 C262.99977,423.156986 259.898969,427.974389 260.002516,433.253773 C260.001831,436.678232 261.379526,439.958868 263.825072,442.356234 C266.270619,444.7536 269.578202,446.065937 273.002303,445.997448 L273.002303,445.997448 Z"/><path d="M299 446C306.179702 446 312 440.179702 312 433 312 425.820298 306.179702 420 299 420 291.820298 420 286 425.820298 286 433 286 436.447814 287.369639 439.754415 289.807612 442.192388 292.245585 444.630361 295.552186 446 299 446L299 446ZM325.5 446C332.403559 446 338 440.403559 338 433.5 338 426.596441 332.403559 421 325.5 421 318.596441 421 313 426.596441 313 433.5 313 436.815206 314.316961 439.99463 316.661165 442.338835 319.00537 444.683039 322.184794 446 325.5 446L325.5 446ZM353.457002 445C358.116014 445.017272 362.325126 442.221808 364.116078 437.92074 365.907029 433.619672 364.925883 428.663001 361.631441 425.368559 358.336999 422.074117 353.380328 421.092971 349.07926 422.883922 344.778192 424.674874 341.982728 428.883986 342 433.542998 342 439.870481 347.129519 445 353.457002 445Z"/><circle cx="380" cy="433" r="10"/><circle cx="406.5" cy="433.5" r="7.5"/><path d="M433.414223 436.978425C435.451979 436.766267 437 435.048736 437 433 437 430.951264 435.451979 429.233733 433.414223 429.021575 431.894072 428.863306 430.416606 429.585095 429.607117 430.881466 428.797628 432.177837 428.797628 433.822163 429.607117 435.118534 430.416606 436.414905 431.894072 437.136694 433.414223 436.978425ZM86.0005036 461.52002C86.6188805 461.519806 87.1754898 461.144992 87.4082196 460.572081 87.6409493 459.99917 87.5034038 459.342374 87.0603545 458.910984 86.6173053 458.479594 85.9570757 458.359609 85.3905734 458.60753 84.8240711 458.855452 84.4642306 459.421857 84.4805036 460.04002 84.5021903 460.863831 85.1764068 461.520305 86.0005036 461.52002L86.0005036 461.52002Z"/><circle cx="112" cy="460" r="5"/><path d="M139.5 467C142.537275 467 145.274649 465.168043 146.432962 462.360319 147.591276 459.552596 146.941813 456.323461 144.788065 454.18188 142.634318 452.040299 139.401557 451.409142 136.600444 452.583345 133.79933 453.757548 131.982961 456.505259 132 459.54248 132.023429 463.667999 135.374426 467 139.5 467ZM165.499957 469C169.346212 469 172.812906 466.680606 174.280737 463.125465 175.748569 459.570323 174.927856 455.480918 172.201954 452.76742 169.476053 450.053922 165.382932 449.251851 161.834498 450.735857 158.286064 452.219863 155.982616 455.697071 156 459.543268 156 462.058823 157.002324 464.470721 158.785145 466.245431 160.567966 468.02014 162.984417 469.011388 165.499957 469ZM192.456902 470C196.711476 470.017313 200.555999 467.465508 202.192202 463.5381 203.828406 459.610692 202.932822 455.084103 199.924359 452.075641 196.915897 449.067178 192.389308 448.171594 188.4619 449.807798 184.534492 451.444001 181.982687 455.288524 182 459.543098 182 462.316417 183.101785 464.976149 185.062818 466.937182 187.023851 468.898215 189.683583 470 192.456902 470Z"/><circle cx="219" cy="460" r="11"/><circle cx="246.5" cy="459.5" r="11.5"/><path d="M272.456518 471C277.115617 471.017466 281.324909 468.222075 283.115985 463.920964 284.907061 459.619852 283.925945 454.663063 280.631441 451.368559 277.336937 448.074055 272.380148 447.092939 268.079036 448.884015 263.777925 450.675091 260.982534 454.884383 261 459.543482 261 465.870697 266.129303 471 272.456518 471L272.456518 471ZM298.999923 471C303.452891 471 307.466553 468.315135 309.16654 464.199452 310.866527 460.083769 309.917431 455.349168 306.762479 452.206696 303.607526 449.064225 298.869187 448.133891 294.760255 449.850158 290.651322 451.566425 287.982486 455.590675 288 460.043593 288 462.956938 289.160357 465.750331 291.224486 467.806294 293.288615 469.862257 296.08659 471.011475 298.999923 471L298.999923 471ZM325.956471 470C330.008893 470.017486 333.671264 467.587568 335.230191 463.846956 336.789119 460.106343 335.936341 455.794704 333.070818 452.929182 330.205296 450.063659 325.893657 449.210881 322.153044 450.769809 318.412432 452.328736 315.982514 455.991107 316 460.043529 316 465.542284 320.457716 470 325.956471 470ZM352.5 468C357.19442 468 361 464.19442 361 459.5 361 454.80558 357.19442 451 352.5 451 347.80558 451 344 454.80558 344 459.5 344 464.19442 347.80558 468 352.5 468ZM379.958676 465.999857C382.392863 466.016588 384.595917 464.560924 385.535185 462.31519 386.474454 460.069455 385.963762 457.47878 384.242491 455.757509 382.52122 454.036238 379.930545 453.525546 377.68481 454.464815 375.439076 455.404083 373.983412 457.607137 374.000143 460.041324 374.000143 463.332131 376.667869 465.999857 379.958676 465.999857L379.958676 465.999857ZM406.500214 463C407.919719 462.999892 409.198574 462.142405 409.73767 460.82925 410.276765 459.516096 409.96932 458.007375 408.959363 457.009886 407.949407 456.012396 406.436986 455.723715 405.130632 456.279082 403.824277 456.834448 402.982744 458.123859 403.000269 459.543258 403.023926 461.459332 404.583997 463.000146 406.500214 463Z"/><circle cx="112" cy="487" r="1"/><path d="M139 490C140.656854 490 142 488.656854 142 487 142 485.343146 140.656854 484 139 484 137.343146 484 136 485.343146 136 487 136 488.656854 137.343146 490 139 490ZM166.041666 490.999826C168.797548 490.97686 171.015201 488.728216 171 485.97228 170.984642 483.216344 168.742194 480.992428 165.986226 481 163.230258 481.007611 161 483.243848 161 485.999826 161 487.33316 161.532454 488.611285 162.479166 489.550173 163.425879 490.489062 164.708379 491.010937 166.041666 490.999826L166.041666 490.999826ZM192.458041 492.999864C195.09073 493.016849 197.473647 491.444014 198.492925 489.016561 199.512202 486.589108 198.966502 483.786534 197.110906 481.91887 195.255309 480.051206 192.456353 479.487373 190.022377 480.490927 187.588402 481.494482 186.000191 483.867192 186.000136 486.499962 185.988967 488.219975 186.664418 489.873378 187.876723 491.093567 189.089027 492.313756 190.738008 493 192.458041 492.999864L192.458041 492.999864Z"/><ellipse cx="219.313" cy="486.514" rx="7.643" ry="7.642" transform="rotate(-9.25 219.313 486.514)"/><path d="M246 495C250.418278 495 254 491.418278 254 487 254 482.581722 250.418278 479 246 479 241.581722 479 238 482.581722 238 487 238 491.418278 241.581722 495 246 495ZM272.955687 495C276.195301 495.017776 279.125887 493.080057 280.378055 490.092168 281.630224 487.104279 280.95674 483.656164 278.672307 481.359041 276.387873 479.061918 272.94354 478.369342 269.948758 479.604937 266.953976 480.840532 265 483.760336 265 487 265 491.401006 268.554743 494.975562 272.955687 495L272.955687 495ZM299.000064 493C302.866022 493 306 489.865895 306 485.999936 306 482.133978 302.866022 479 299.000064 479 295.134105 479 292 482.133978 292 485.999936 291.988889 487.859857 292.72277 489.646856 294.037957 490.962043 295.353144 492.27723 297.140143 493.011111 299.000064 493L299.000064 493ZM325.955798 491.999837C328.386472 492.01771 330.587762 490.567265 331.530351 488.326727 332.47294 486.086189 331.97056 483.498319 330.258121 481.773197 328.545683 480.048076 325.961588 479.526611 323.714153 480.452638 321.466717 481.378666 320 483.56919 320 485.999927 320 489.296433 322.659378 491.975598 325.955798 491.999837ZM352.5 491C354.985281 491 357 488.985281 357 486.5 357 484.014719 354.985281 482 352.5 482 350.014719 482 348 484.014719 348 486.5 348 488.985281 350.014719 491 352.5 491ZM380 488.52C380.839473 488.52 381.52 487.839473 381.52 487 381.52 486.160527 380.839473 485.48 380 485.48 379.160527 485.48 378.48 486.160527 378.48 487 378.48 487.839473 379.160527 488.52 380 488.52Z"/><circle cx="192.5" cy="513.5" r="1.5"/><path d="M219.5 516C220.880712 516 222 514.880712 222 513.5 222 512.119288 220.880712 511 219.5 511 218.119288 511 217 512.119288 217 513.5 217 514.880712 218.119288 516 219.5 516L219.5 516ZM246.480315 516C247.871899 516 249 514.871899 249 513.480315 248.978495 512.10413 247.856667 510.999832 246.480315 511 245.110475 511 244 512.110475 244 513.480315 243.999832 514.856667 245.10413 515.978495 246.480315 516ZM272.5 516C273.880712 516 275 514.880712 275 513.5 275 512.119288 273.880712 511 272.5 511 271.119288 511 270 512.119288 270 513.5 270 514.163041 270.263392 514.798926 270.732233 515.267767 271.201074 515.736608 271.836959 516 272.5 516ZM300 514.72C300.94993 514.72 301.72 513.94993 301.72 513 301.72 512.05007 300.94993 511.28 300 511.28 299.05007 511.28 298.28 512.05007 298.28 513 298.28 513.94993 299.05007 514.72 300 514.72Z"/><circle cx="325.5" cy="513.5" r="1"/></svg>